<svg width="325" height="356" viewBox="0 0 325 356" fill="none" xmlns="http://www.w3.org/2000/svg">
<path d="M163.46 10.5701C137.95 10.5701 124.18 92.8001 124.18 170.2C124.18 210.12 127.85 251.34 134.88 281.91C135.48 284.53 136.11 287.03 136.75 289.46C138.46 296.048 140.622 302.51 143.22 308.8C144.565 312.016 146.139 315.13 147.93 318.12C152.5 325.56 157.66 329.79 163.46 329.79C169.26 329.79 174.53 325.49 179.1 317.89C181.178 314.446 182.955 310.83 184.41 307.08C186.734 301.21 188.682 295.198 190.24 289.08C190.92 286.65 191.52 284.08 192.12 281.48C199.12 250.96 202.74 209.92 202.74 170.19C202.74 92.8001 189 10.5701 163.46 10.5701ZM185.46 277.57C183.454 287.441 180.59 297.118 176.9 306.49C172.56 316.7 167.9 322.28 163.43 322.28C159.16 322.28 154.79 317.28 150.67 308.1C147.34 300.66 144.2 290.48 141.47 277.95C135.63 251.28 131.63 213.95 131.63 170.17C131.63 80.5001 148.39 18.0301 163.43 18.0301C178.47 18.0301 195.23 80.5001 195.23 170.17C195.26 213.78 191.29 251 185.49 277.6L185.46 277.57Z" fill="#84D9BC"/>
<path d="M17.3501 236.4V186.76L122.18 124.91L132.18 121.13V200L17.3501 236.4ZM24.8401 191V226.15L124.71 194.45V132.05L24.8401 191Z" fill="#84D9BC"/>
<path d="M309.37 236.42L194.53 200V121.15L205.12 125.21L309.37 186.78V236.42ZM202 194.5L301.87 226.2V191.05L202 132.05V194.5Z" fill="#84D9BC"/>
<path d="M141.5 278L134.88 281.93L90.1699 308.24V336.45L147.93 318.12L150.7 317.22V308.13C147.37 300.69 144.23 290.51 141.5 278ZM143.22 311.78L97.6599 326.2V312.51L136.75 289.46L143.22 285.65V311.78Z" fill="#84D9BC"/>
<path d="M192.12 281.49L185.49 277.6C183.484 287.471 180.62 297.148 176.93 306.52V317.22L179.1 317.89L237.42 336.45V308.24L192.12 281.49ZM229.94 326.2L184.41 311.76V285.65L190.24 289.09L229.94 312.51V326.2Z" fill="#84D9BC"/>
<path d="M163.45 87.61C160.501 87.61 157.618 86.7353 155.165 85.0966C152.713 83.4578 150.802 81.1286 149.674 78.4035C148.546 75.6785 148.251 72.6801 148.827 69.7876C149.403 66.895 150.824 64.2384 152.911 62.1536C154.997 60.0687 157.654 58.6495 160.547 58.0753C163.44 57.5011 166.439 57.7978 169.163 58.9279C171.887 60.0579 174.215 61.9705 175.852 64.4238C177.489 66.877 178.362 69.7607 178.36 72.71C178.355 76.6619 176.782 80.4502 173.987 83.2436C171.191 86.0371 167.402 87.6074 163.45 87.61ZM163.45 61.54C161.241 61.54 159.081 62.1952 157.244 63.4225C155.407 64.6499 153.976 66.3944 153.13 68.4355C152.285 70.4765 152.064 72.7224 152.495 74.8892C152.926 77.056 153.99 79.0463 155.552 80.6084C157.114 82.1706 159.104 83.2344 161.271 83.6654C163.438 84.0964 165.684 83.8752 167.725 83.0298C169.766 82.1843 171.51 80.7527 172.738 78.9158C173.965 77.0789 174.62 74.9193 174.62 72.71C174.62 69.7476 173.443 66.9064 171.348 64.8117C169.254 62.7169 166.413 61.54 163.45 61.54Z" fill="#84D9BC"/>
<path d="M163.45 129.44C160.898 129.44 158.404 128.683 156.283 127.266C154.162 125.848 152.508 123.834 151.532 121.477C150.555 119.119 150.3 116.526 150.798 114.023C151.295 111.521 152.524 109.222 154.328 107.418C156.132 105.614 158.431 104.386 160.933 103.888C163.436 103.39 166.029 103.645 168.386 104.622C170.744 105.598 172.758 107.252 174.176 109.373C175.593 111.494 176.35 113.989 176.35 116.54C176.347 119.96 174.987 123.24 172.569 125.659C170.15 128.077 166.87 129.437 163.45 129.44ZM163.45 107.44C161.638 107.44 159.866 107.977 158.36 108.984C156.853 109.991 155.679 111.422 154.986 113.097C154.293 114.771 154.112 116.613 154.467 118.391C154.821 120.168 155.694 121.8 156.976 123.081C158.258 124.361 159.891 125.233 161.669 125.585C163.446 125.937 165.289 125.755 166.962 125.06C168.636 124.365 170.066 123.189 171.071 121.682C172.076 120.174 172.612 118.402 172.61 116.59C172.615 115.384 172.382 114.188 171.924 113.072C171.466 111.956 170.792 110.942 169.941 110.087C169.09 109.232 168.078 108.554 166.964 108.091C165.851 107.628 164.656 107.39 163.45 107.39V107.44Z" fill="#84D9BC"/>
<path d="M163.45 169.1C160.898 169.1 158.404 168.343 156.282 166.925C154.16 165.507 152.507 163.492 151.531 161.134C150.555 158.777 150.3 156.182 150.798 153.68C151.297 151.177 152.527 148.879 154.332 147.075C156.137 145.271 158.436 144.043 160.939 143.547C163.442 143.05 166.036 143.307 168.393 144.285C170.75 145.263 172.764 146.918 174.181 149.04C175.597 151.163 176.352 153.658 176.35 156.21C176.347 159.63 174.987 162.908 172.568 165.325C170.149 167.742 166.869 169.1 163.45 169.1ZM163.45 147.1C161.638 147.1 159.867 147.637 158.361 148.644C156.854 149.65 155.68 151.081 154.987 152.755C154.294 154.428 154.112 156.27 154.466 158.047C154.819 159.824 155.692 161.456 156.973 162.737C158.254 164.018 159.886 164.891 161.663 165.244C163.44 165.597 165.281 165.416 166.955 164.723C168.629 164.029 170.06 162.855 171.066 161.349C172.073 159.843 172.61 158.072 172.61 156.26C172.616 155.053 172.384 153.856 171.927 152.739C171.47 151.622 170.796 150.606 169.945 149.751C169.093 148.895 168.081 148.216 166.967 147.752C165.852 147.289 164.657 147.05 163.45 147.05V147.1Z" fill="#84D9BC"/>
<path d="M163.45 205.18C160.898 205.18 158.404 204.423 156.282 203.005C154.16 201.587 152.507 199.572 151.531 197.214C150.555 194.856 150.3 192.262 150.798 189.76C151.297 187.257 152.527 184.958 154.332 183.155C156.137 181.351 158.436 180.123 160.939 179.627C163.442 179.13 166.036 179.387 168.393 180.365C170.75 181.343 172.764 182.998 174.181 185.12C175.597 187.243 176.352 189.738 176.35 192.29C176.347 195.709 174.987 198.988 172.568 201.405C170.149 203.822 166.869 205.18 163.45 205.18ZM163.45 183.13C161.638 183.13 159.867 183.667 158.361 184.674C156.854 185.68 155.68 187.111 154.987 188.785C154.294 190.458 154.112 192.3 154.466 194.077C154.819 195.854 155.692 197.486 156.973 198.767C158.254 200.048 159.886 200.92 161.663 201.274C163.44 201.627 165.281 201.446 166.955 200.753C168.629 200.059 170.06 198.885 171.066 197.379C172.073 195.873 172.61 194.102 172.61 192.29C172.61 189.861 171.645 187.531 169.927 185.813C168.209 184.095 165.879 183.13 163.45 183.13Z" fill="#84D9BC"/>
</svg>
