<svg width="325" height="356" viewBox="0 0 325 356" fill="none" xmlns="http://www.w3.org/2000/svg">
<path d="M177.35 85.93C177.35 76.99 171.35 62.71 165.96 55.55C163.32 52.03 160.96 52.03 158.37 55.55C153.82 61.61 146.97 78.35 146.97 85.93H177.35Z" fill="white"/>
<mask id="mask0_201_12" style="mask-type:luminance" maskUnits="userSpaceOnUse" x="146" y="52" width="32" height="34">
<path d="M177.35 85.93C177.35 76.99 171.35 62.71 165.96 55.55C163.32 52.03 160.96 52.03 158.37 55.55C153.82 61.61 146.97 78.35 146.97 85.93H177.35Z" fill="white"/>
</mask>
<g mask="url(#mask0_201_12)">
<path d="M147.42 52.03H146.97V85.93H147.42V52.03Z" fill="white"/>
<path d="M147.88 52.03H147.43V85.93H147.88V52.03Z" fill="white"/>
<path d="M148.33 52.03H147.88V85.93H148.33V52.03Z" fill="white"/>
<path d="M148.78 52.03H148.33V85.93H148.78V52.03Z" fill="white"/>
<path d="M149.24 52.03H148.79V85.93H149.24V52.03Z" fill="white"/>
<path d="M149.69 52.03H149.24V85.93H149.69V52.03Z" fill="white"/>
<path d="M150.14 52.03H149.69V85.93H150.14V52.03Z" fill="white"/>
<path d="M150.6 52.03H150.15V85.93H150.6V52.03Z" fill="white"/>
<path d="M151.05 52.03H150.6V85.93H151.05V52.03Z" fill="white"/>
<path d="M151.5 52.03H151.05V85.93H151.5V52.03Z" fill="white"/>
<path d="M151.96 52.03H151.51V85.93H151.96V52.03Z" fill="white"/>
<path d="M152.41 52.03H151.96V85.93H152.41V52.03Z" fill="white"/>
<path d="M152.87 52.03H152.42V85.93H152.87V52.03Z" fill="white"/>
<path d="M153.32 52.03H152.87V85.93H153.32V52.03Z" fill="white"/>
<path d="M153.77 52.03H153.32V85.93H153.77V52.03Z" fill="white"/>
<path d="M154.23 52.03H153.78V85.93H154.23V52.03Z" fill="white"/>
<path d="M154.68 52.03H154.23V85.93H154.68V52.03Z" fill="white"/>
<path d="M155.13 52.03H154.68V85.93H155.13V52.03Z" fill="white"/>
<path d="M155.59 52.03H155.14V85.93H155.59V52.03Z" fill="white"/>
<path d="M156.04 52.03H155.59V85.93H156.04V52.03Z" fill="white"/>
<path d="M156.49 52.03H156.04V85.93H156.49V52.03Z" fill="white"/>
<path d="M156.95 52.03H156.5V85.93H156.95V52.03Z" fill="white"/>
<path d="M157.4 52.03H156.95V85.93H157.4V52.03Z" fill="white"/>
<path d="M157.85 52.03H157.4V85.93H157.85V52.03Z" fill="white"/>
<path d="M158.31 52.03H157.86V85.93H158.31V52.03Z" fill="white"/>
<path d="M158.76 52.03H158.31V85.93H158.76V52.03Z" fill="white"/>
<path d="M159.21 52.03H158.76V85.93H159.21V52.03Z" fill="white"/>
<path d="M159.67 52.03H159.22V85.93H159.67V52.03Z" fill="white"/>
<path d="M160.12 52.03H159.67V85.93H160.12V52.03Z" fill="white"/>
<path d="M160.57 52.03H160.12V85.93H160.57V52.03Z" fill="white"/>
<path d="M161.03 52.03H160.58V85.93H161.03V52.03Z" fill="white"/>
<path d="M161.48 52.03H161.03V85.93H161.48V52.03Z" fill="white"/>
<path d="M161.93 52.03H161.48V85.93H161.93V52.03Z" fill="white"/>
<path d="M162.39 52.03H161.94V85.93H162.39V52.03Z" fill="white"/>
<path d="M162.84 52.03H162.39V85.93H162.84V52.03Z" fill="white"/>
<path d="M163.29 52.03H162.84V85.93H163.29V52.03Z" fill="white"/>
<path d="M163.75 52.03H163.3V85.93H163.75V52.03Z" fill="white"/>
<path d="M164.2 52.03H163.75V85.93H164.2V52.03Z" fill="white"/>
<path d="M164.65 52.03H164.2V85.93H164.65V52.03Z" fill="white"/>
<path d="M165.11 52.03H164.66V85.93H165.11V52.03Z" fill="white"/>
<path d="M165.56 52.03H165.11V85.93H165.56V52.03Z" fill="white"/>
<path d="M166.01 52.03H165.56V85.93H166.01V52.03Z" fill="white"/>
<path d="M166.47 52.03H166.02V85.93H166.47V52.03Z" fill="white"/>
<path d="M166.92 52.03H166.47V85.93H166.92V52.03Z" fill="white"/>
<path d="M167.37 52.03H166.92V85.93H167.37V52.03Z" fill="white"/>
<path d="M167.83 52.03H167.38V85.93H167.83V52.03Z" fill="white"/>
<path d="M168.28 52.03H167.83V85.93H168.28V52.03Z" fill="white"/>
<path d="M168.73 52.03H168.28V85.93H168.73V52.03Z" fill="white"/>
<path d="M169.19 52.03H168.74V85.93H169.19V52.03Z" fill="white"/>
<path d="M169.64 52.03H169.19V85.93H169.64V52.03Z" fill="white"/>
<path d="M170.09 52.03H169.64V85.93H170.09V52.03Z" fill="white"/>
<path d="M170.55 52.03H170.1V85.93H170.55V52.03Z" fill="white"/>
<path d="M171 52.03H170.55V85.93H171V52.03Z" fill="white"/>
<path d="M171.45 52.03H171V85.93H171.45V52.03Z" fill="white"/>
<path d="M171.91 52.03H171.46V85.93H171.91V52.03Z" fill="white"/>
<path d="M172.36 52.03H171.91V85.93H172.36V52.03Z" fill="white"/>
<path d="M172.81 52.03H172.36V85.93H172.81V52.03Z" fill="white"/>
<path d="M173.27 52.03H172.82V85.93H173.27V52.03Z" fill="white"/>
<path d="M173.72 52.03H173.27V85.93H173.72V52.03Z" fill="white"/>
<path d="M174.17 52.03H173.72V85.93H174.17V52.03Z" fill="white"/>
<path d="M174.63 52.03H174.18V85.93H174.63V52.03Z" fill="white"/>
<path d="M175.08 52.03H174.63V85.93H175.08V52.03Z" fill="white"/>
<path d="M175.53 52.03H175.08V85.93H175.53V52.03Z" fill="white"/>
<path d="M175.99 52.03H175.54V85.93H175.99V52.03Z" fill="white"/>
<path d="M176.44 52.03H175.99V85.93H176.44V52.03Z" fill="white"/>
<path d="M176.89 52.03H176.44V85.93H176.89V52.03Z" fill="white"/>
<path d="M177.35 52.03H176.9V85.93H177.35V52.03Z" fill="white"/>
</g>
<path d="M165.96 342.61H158.37V350.2H165.96V342.61Z" fill="white"/>
<mask id="mask1_201_12" style="mask-type:luminance" maskUnits="userSpaceOnUse" x="158" y="342" width="8" height="9">
<path d="M165.96 342.61H158.37V350.2H165.96V342.61Z" fill="white"/>
</mask>
<g mask="url(#mask1_201_12)">
<path d="M158.48 342.61H158.37V350.2H158.48V342.61Z" fill="white"/>
<path d="M158.59 342.61H158.48V350.2H158.59V342.61Z" fill="white"/>
<path d="M158.7 342.61H158.59V350.2H158.7V342.61Z" fill="white"/>
<path d="M158.82 342.61H158.71V350.2H158.82V342.61Z" fill="white"/>
<path d="M158.93 342.61H158.82V350.2H158.93V342.61Z" fill="white"/>
<path d="M159.04 342.61H158.93V350.2H159.04V342.61Z" fill="white"/>
<path d="M159.16 342.61H159.05V350.2H159.16V342.61Z" fill="white"/>
<path d="M159.27 342.61H159.16V350.2H159.27V342.61Z" fill="white"/>
<path d="M159.38 342.61H159.27V350.2H159.38V342.61Z" fill="white"/>
<path d="M159.5 342.61H159.39V350.2H159.5V342.61Z" fill="white"/>
<path d="M159.61 342.61H159.5V350.2H159.61V342.61Z" fill="white"/>
<path d="M159.72 342.61H159.61V350.2H159.72V342.61Z" fill="white"/>
<path d="M159.84 342.61H159.73V350.2H159.84V342.61Z" fill="white"/>
<path d="M159.95 342.61H159.84V350.2H159.95V342.61Z" fill="white"/>
<path d="M160.06 342.61H159.95V350.2H160.06V342.61Z" fill="white"/>
<path d="M160.18 342.61H160.07V350.2H160.18V342.61Z" fill="white"/>
<path d="M160.29 342.61H160.18V350.2H160.29V342.61Z" fill="white"/>
<path d="M160.4 342.61H160.29V350.2H160.4V342.61Z" fill="white"/>
<path d="M160.52 342.61H160.41V350.2H160.52V342.61Z" fill="white"/>
<path d="M160.63 342.61H160.52V350.2H160.63V342.61Z" fill="white"/>
<path d="M160.74 342.61H160.63V350.2H160.74V342.61Z" fill="white"/>
<path d="M160.86 342.61H160.75V350.2H160.86V342.61Z" fill="white"/>
<path d="M160.97 342.61H160.86V350.2H160.97V342.61Z" fill="white"/>
<path d="M161.08 342.61H160.97V350.2H161.08V342.61Z" fill="white"/>
<path d="M161.2 342.61H161.09V350.2H161.2V342.61Z" fill="white"/>
<path d="M161.31 342.61H161.2V350.2H161.31V342.61Z" fill="white"/>
<path d="M161.42 342.61H161.31V350.2H161.42V342.61Z" fill="white"/>
<path d="M161.54 342.61H161.43V350.2H161.54V342.61Z" fill="white"/>
<path d="M161.65 342.61H161.54V350.2H161.65V342.61Z" fill="white"/>
<path d="M161.76 342.61H161.65V350.2H161.76V342.61Z" fill="white"/>
<path d="M161.88 342.61H161.77V350.2H161.88V342.61Z" fill="white"/>
<path d="M161.99 342.61H161.88V350.2H161.99V342.61Z" fill="white"/>
<path d="M162.1 342.61H161.99V350.2H162.1V342.61Z" fill="white"/>
<path d="M162.22 342.61H162.11V350.2H162.22V342.61Z" fill="white"/>
<path d="M162.33 342.61H162.22V350.2H162.33V342.61Z" fill="white"/>
<path d="M162.44 342.61H162.33V350.2H162.44V342.61Z" fill="white"/>
<path d="M162.56 342.61H162.45V350.2H162.56V342.61Z" fill="white"/>
<path d="M162.67 342.61H162.56V350.2H162.67V342.61Z" fill="white"/>
<path d="M162.78 342.61H162.67V350.2H162.78V342.61Z" fill="white"/>
<path d="M162.9 342.61H162.79V350.2H162.9V342.61Z" fill="white"/>
<path d="M163.01 342.61H162.9V350.2H163.01V342.61Z" fill="white"/>
<path d="M163.12 342.61H163.01V350.2H163.12V342.61Z" fill="white"/>
<path d="M163.24 342.61H163.13V350.2H163.24V342.61Z" fill="white"/>
<path d="M163.35 342.61H163.24V350.2H163.35V342.61Z" fill="white"/>
<path d="M163.46 342.61H163.35V350.2H163.46V342.61Z" fill="white"/>
<path d="M163.58 342.61H163.47V350.2H163.58V342.61Z" fill="white"/>
<path d="M163.69 342.61H163.58V350.2H163.69V342.61Z" fill="white"/>
<path d="M163.8 342.61H163.69V350.2H163.8V342.61Z" fill="white"/>
<path d="M163.92 342.61H163.81V350.2H163.92V342.61Z" fill="white"/>
<path d="M164.03 342.61H163.92V350.2H164.03V342.61Z" fill="white"/>
<path d="M164.14 342.61H164.03V350.2H164.14V342.61Z" fill="white"/>
<path d="M164.26 342.61H164.15V350.2H164.26V342.61Z" fill="white"/>
<path d="M164.37 342.61H164.26V350.2H164.37V342.61Z" fill="white"/>
<path d="M164.48 342.61H164.37V350.2H164.48V342.61Z" fill="white"/>
<path d="M164.6 342.61H164.49V350.2H164.6V342.61Z" fill="white"/>
<path d="M164.71 342.61H164.6V350.2H164.71V342.61Z" fill="white"/>
<path d="M164.82 342.61H164.71V350.2H164.82V342.61Z" fill="white"/>
<path d="M164.94 342.61H164.83V350.2H164.94V342.61Z" fill="white"/>
<path d="M165.05 342.61H164.94V350.2H165.05V342.61Z" fill="white"/>
<path d="M165.16 342.61H165.05V350.2H165.16V342.61Z" fill="white"/>
<path d="M165.28 342.61H165.17V350.2H165.28V342.61Z" fill="white"/>
<path d="M165.39 342.61H165.28V350.2H165.39V342.61Z" fill="white"/>
<path d="M165.5 342.61H165.39V350.2H165.5V342.61Z" fill="white"/>
<path d="M165.62 342.61H165.51V350.2H165.62V342.61Z" fill="white"/>
<path d="M165.73 342.61H165.62V350.2H165.73V342.61Z" fill="white"/>
<path d="M165.84 342.61H165.73V350.2H165.84V342.61Z" fill="white"/>
<path d="M165.96 342.61H165.85V350.2H165.96V342.61Z" fill="white"/>
</g>
<path d="M165.96 302.36H158.37V335.01H165.96V302.36Z" fill="white"/>
<mask id="mask2_201_12" style="mask-type:luminance" maskUnits="userSpaceOnUse" x="158" y="302" width="8" height="34">
<path d="M165.96 302.36H158.37V335.01H165.96V302.36Z" fill="white"/>
</mask>
<g mask="url(#mask2_201_12)">
<path d="M158.48 302.36H158.37V335.01H158.48V302.36Z" fill="white"/>
<path d="M158.59 302.36H158.48V335.01H158.59V302.36Z" fill="white"/>
<path d="M158.7 302.36H158.59V335.01H158.7V302.36Z" fill="white"/>
<path d="M158.82 302.36H158.71V335.01H158.82V302.36Z" fill="white"/>
<path d="M158.93 302.36H158.82V335.01H158.93V302.36Z" fill="white"/>
<path d="M159.04 302.36H158.93V335.01H159.04V302.36Z" fill="white"/>
<path d="M159.16 302.36H159.05V335.01H159.16V302.36Z" fill="white"/>
<path d="M159.27 302.36H159.16V335.01H159.27V302.36Z" fill="white"/>
<path d="M159.38 302.36H159.27V335.01H159.38V302.36Z" fill="white"/>
<path d="M159.5 302.36H159.39V335.01H159.5V302.36Z" fill="white"/>
<path d="M159.61 302.36H159.5V335.01H159.61V302.36Z" fill="white"/>
<path d="M159.72 302.36H159.61V335.01H159.72V302.36Z" fill="white"/>
<path d="M159.84 302.36H159.73V335.01H159.84V302.36Z" fill="white"/>
<path d="M159.95 302.36H159.84V335.01H159.95V302.36Z" fill="white"/>
<path d="M160.06 302.36H159.95V335.01H160.06V302.36Z" fill="white"/>
<path d="M160.18 302.36H160.07V335.01H160.18V302.36Z" fill="white"/>
<path d="M160.29 302.36H160.18V335.01H160.29V302.36Z" fill="white"/>
<path d="M160.4 302.36H160.29V335.01H160.4V302.36Z" fill="white"/>
<path d="M160.52 302.36H160.41V335.01H160.52V302.36Z" fill="white"/>
<path d="M160.63 302.36H160.52V335.01H160.63V302.36Z" fill="white"/>
<path d="M160.74 302.36H160.63V335.01H160.74V302.36Z" fill="white"/>
<path d="M160.86 302.36H160.75V335.01H160.86V302.36Z" fill="white"/>
<path d="M160.97 302.36H160.86V335.01H160.97V302.36Z" fill="white"/>
<path d="M161.08 302.36H160.97V335.01H161.08V302.36Z" fill="white"/>
<path d="M161.2 302.36H161.09V335.01H161.2V302.36Z" fill="white"/>
<path d="M161.31 302.36H161.2V335.01H161.31V302.36Z" fill="white"/>
<path d="M161.42 302.36H161.31V335.01H161.42V302.36Z" fill="white"/>
<path d="M161.54 302.36H161.43V335.01H161.54V302.36Z" fill="white"/>
<path d="M161.65 302.36H161.54V335.01H161.65V302.36Z" fill="white"/>
<path d="M161.76 302.36H161.65V335.01H161.76V302.36Z" fill="white"/>
<path d="M161.88 302.36H161.77V335.01H161.88V302.36Z" fill="white"/>
<path d="M161.99 302.36H161.88V335.01H161.99V302.36Z" fill="white"/>
<path d="M162.1 302.36H161.99V335.01H162.1V302.36Z" fill="white"/>
<path d="M162.22 302.36H162.11V335.01H162.22V302.36Z" fill="white"/>
<path d="M162.33 302.36H162.22V335.01H162.33V302.36Z" fill="white"/>
<path d="M162.44 302.36H162.33V335.01H162.44V302.36Z" fill="white"/>
<path d="M162.56 302.36H162.45V335.01H162.56V302.36Z" fill="white"/>
<path d="M162.67 302.36H162.56V335.01H162.67V302.36Z" fill="white"/>
<path d="M162.78 302.36H162.67V335.01H162.78V302.36Z" fill="white"/>
<path d="M162.9 302.36H162.79V335.01H162.9V302.36Z" fill="white"/>
<path d="M163.01 302.36H162.9V335.01H163.01V302.36Z" fill="white"/>
<path d="M163.12 302.36H163.01V335.01H163.12V302.36Z" fill="white"/>
<path d="M163.24 302.36H163.13V335.01H163.24V302.36Z" fill="white"/>
<path d="M163.35 302.36H163.24V335.01H163.35V302.36Z" fill="white"/>
<path d="M163.46 302.36H163.35V335.01H163.46V302.36Z" fill="white"/>
<path d="M163.58 302.36H163.47V335.01H163.58V302.36Z" fill="white"/>
<path d="M163.69 302.36H163.58V335.01H163.69V302.36Z" fill="white"/>
<path d="M163.8 302.36H163.69V335.01H163.8V302.36Z" fill="white"/>
<path d="M163.92 302.36H163.81V335.01H163.92V302.36Z" fill="white"/>
<path d="M164.03 302.36H163.92V335.01H164.03V302.36Z" fill="white"/>
<path d="M164.14 302.36H164.03V335.01H164.14V302.36Z" fill="white"/>
<path d="M164.26 302.36H164.15V335.01H164.26V302.36Z" fill="white"/>
<path d="M164.37 302.36H164.26V335.01H164.37V302.36Z" fill="white"/>
<path d="M164.48 302.36H164.37V335.01H164.48V302.36Z" fill="white"/>
<path d="M164.6 302.36H164.49V335.01H164.6V302.36Z" fill="white"/>
<path d="M164.71 302.36H164.6V335.01H164.71V302.36Z" fill="white"/>
<path d="M164.82 302.36H164.71V335.01H164.82V302.36Z" fill="white"/>
<path d="M164.94 302.36H164.83V335.01H164.94V302.36Z" fill="white"/>
<path d="M165.05 302.36H164.94V335.01H165.05V302.36Z" fill="white"/>
<path d="M165.16 302.36H165.05V335.01H165.16V302.36Z" fill="white"/>
<path d="M165.28 302.36H165.17V335.01H165.28V302.36Z" fill="white"/>
<path d="M165.39 302.36H165.28V335.01H165.39V302.36Z" fill="white"/>
<path d="M165.5 302.36H165.39V335.01H165.5V302.36Z" fill="white"/>
<path d="M165.62 302.36H165.51V335.01H165.62V302.36Z" fill="white"/>
<path d="M165.73 302.36H165.62V335.01H165.73V302.36Z" fill="white"/>
<path d="M165.84 302.36H165.73V335.01H165.84V302.36Z" fill="white"/>
<path d="M165.96 302.36H165.85V335.01H165.96V302.36Z" fill="white"/>
</g>
<path d="M184.94 294.77H177.35V338.82H184.94V294.77Z" fill="white"/>
<mask id="mask3_201_12" style="mask-type:luminance" maskUnits="userSpaceOnUse" x="177" y="294" width="8" height="45">
<path d="M184.94 294.77H177.35V338.82H184.94V294.77Z" fill="white"/>
</mask>
<g mask="url(#mask3_201_12)">
<path d="M177.46 294.77H177.35V338.82H177.46V294.77Z" fill="white"/>
<path d="M177.57 294.77H177.46V338.82H177.57V294.77Z" fill="white"/>
<path d="M177.69 294.77H177.58V338.82H177.69V294.77Z" fill="white"/>
<path d="M177.8 294.77H177.69V338.82H177.8V294.77Z" fill="white"/>
<path d="M177.91 294.77H177.8V338.82H177.91V294.77Z" fill="white"/>
<path d="M178.03 294.77H177.92V338.82H178.03V294.77Z" fill="white"/>
<path d="M178.14 294.77H178.03V338.82H178.14V294.77Z" fill="white"/>
<path d="M178.25 294.77H178.14V338.82H178.25V294.77Z" fill="white"/>
<path d="M178.37 294.77H178.26V338.82H178.37V294.77Z" fill="white"/>
<path d="M178.48 294.77H178.37V338.82H178.48V294.77Z" fill="white"/>
<path d="M178.59 294.77H178.48V338.82H178.59V294.77Z" fill="white"/>
<path d="M178.71 294.77H178.6V338.82H178.71V294.77Z" fill="white"/>
<path d="M178.82 294.77H178.71V338.82H178.82V294.77Z" fill="white"/>
<path d="M178.93 294.77H178.82V338.82H178.93V294.77Z" fill="white"/>
<path d="M179.05 294.77H178.94V338.82H179.05V294.77Z" fill="white"/>
<path d="M179.16 294.77H179.05V338.82H179.16V294.77Z" fill="white"/>
<path d="M179.27 294.77H179.16V338.82H179.27V294.77Z" fill="white"/>
<path d="M179.39 294.77H179.28V338.82H179.39V294.77Z" fill="white"/>
<path d="M179.5 294.77H179.39V338.82H179.5V294.77Z" fill="white"/>
<path d="M179.61 294.77H179.5V338.82H179.61V294.77Z" fill="white"/>
<path d="M179.73 294.77H179.62V338.82H179.73V294.77Z" fill="white"/>
<path d="M179.84 294.77H179.73V338.82H179.84V294.77Z" fill="white"/>
<path d="M179.95 294.77H179.84V338.82H179.95V294.77Z" fill="white"/>
<path d="M180.07 294.77H179.96V338.82H180.07V294.77Z" fill="white"/>
<path d="M180.18 294.77H180.07V338.82H180.18V294.77Z" fill="white"/>
<path d="M180.29 294.77H180.18V338.82H180.29V294.77Z" fill="white"/>
<path d="M180.41 294.77H180.3V338.82H180.41V294.77Z" fill="white"/>
<path d="M180.52 294.77H180.41V338.82H180.52V294.77Z" fill="white"/>
<path d="M180.63 294.77H180.52V338.82H180.63V294.77Z" fill="white"/>
<path d="M180.75 294.77H180.64V338.82H180.75V294.77Z" fill="white"/>
<path d="M180.86 294.77H180.75V338.82H180.86V294.77Z" fill="white"/>
<path d="M180.97 294.77H180.86V338.82H180.97V294.77Z" fill="white"/>
<path d="M181.09 294.77H180.98V338.82H181.09V294.77Z" fill="white"/>
<path d="M181.2 294.77H181.09V338.82H181.2V294.77Z" fill="white"/>
<path d="M181.31 294.77H181.2V338.82H181.31V294.77Z" fill="white"/>
<path d="M181.43 294.77H181.32V338.82H181.43V294.77Z" fill="white"/>
<path d="M181.54 294.77H181.43V338.82H181.54V294.77Z" fill="white"/>
<path d="M181.65 294.77H181.54V338.82H181.65V294.77Z" fill="white"/>
<path d="M181.77 294.77H181.66V338.82H181.77V294.77Z" fill="white"/>
<path d="M181.88 294.77H181.77V338.82H181.88V294.77Z" fill="white"/>
<path d="M181.99 294.77H181.88V338.82H181.99V294.77Z" fill="white"/>
<path d="M182.11 294.77H182V338.82H182.11V294.77Z" fill="white"/>
<path d="M182.22 294.77H182.11V338.82H182.22V294.77Z" fill="white"/>
<path d="M182.33 294.77H182.22V338.82H182.33V294.77Z" fill="white"/>
<path d="M182.45 294.77H182.34V338.82H182.45V294.77Z" fill="white"/>
<path d="M182.56 294.77H182.45V338.82H182.56V294.77Z" fill="white"/>
<path d="M182.67 294.77H182.56V338.82H182.67V294.77Z" fill="white"/>
<path d="M182.79 294.77H182.68V338.82H182.79V294.77Z" fill="white"/>
<path d="M182.9 294.77H182.79V338.82H182.9V294.77Z" fill="white"/>
<path d="M183.01 294.77H182.9V338.82H183.01V294.77Z" fill="white"/>
<path d="M183.13 294.77H183.02V338.82H183.13V294.77Z" fill="white"/>
<path d="M183.24 294.77H183.13V338.82H183.24V294.77Z" fill="white"/>
<path d="M183.35 294.77H183.24V338.82H183.35V294.77Z" fill="white"/>
<path d="M183.47 294.77H183.36V338.82H183.47V294.77Z" fill="white"/>
<path d="M183.58 294.77H183.47V338.82H183.58V294.77Z" fill="white"/>
<path d="M183.69 294.77H183.58V338.82H183.69V294.77Z" fill="white"/>
<path d="M183.81 294.77H183.7V338.82H183.81V294.77Z" fill="white"/>
<path d="M183.92 294.77H183.81V338.82H183.92V294.77Z" fill="white"/>
<path d="M184.03 294.77H183.92V338.82H184.03V294.77Z" fill="white"/>
<path d="M184.15 294.77H184.04V338.82H184.15V294.77Z" fill="white"/>
<path d="M184.26 294.77H184.15V338.82H184.26V294.77Z" fill="white"/>
<path d="M184.37 294.77H184.26V338.82H184.37V294.77Z" fill="white"/>
<path d="M184.49 294.77H184.38V338.82H184.49V294.77Z" fill="white"/>
<path d="M184.6 294.77H184.49V338.82H184.6V294.77Z" fill="white"/>
<path d="M184.71 294.77H184.6V338.82H184.71V294.77Z" fill="white"/>
<path d="M184.83 294.77H184.72V338.82H184.83V294.77Z" fill="white"/>
<path d="M184.94 294.77H184.83V338.82H184.94V294.77Z" fill="white"/>
</g>
<path d="M207.72 323.62H200.13V331.21H207.72V323.62Z" fill="white"/>
<mask id="mask4_201_12" style="mask-type:luminance" maskUnits="userSpaceOnUse" x="200" y="323" width="8" height="9">
<path d="M207.72 323.62H200.13V331.21H207.72V323.62Z" fill="white"/>
</mask>
<g mask="url(#mask4_201_12)">
<path d="M200.24 323.62H200.13V331.21H200.24V323.62Z" fill="white"/>
<path d="M200.36 323.62H200.25V331.21H200.36V323.62Z" fill="white"/>
<path d="M200.47 323.62H200.36V331.21H200.47V323.62Z" fill="white"/>
<path d="M200.58 323.62H200.47V331.21H200.58V323.62Z" fill="white"/>
<path d="M200.7 323.62H200.59V331.21H200.7V323.62Z" fill="white"/>
<path d="M200.81 323.62H200.7V331.21H200.81V323.62Z" fill="white"/>
<path d="M200.92 323.62H200.81V331.21H200.92V323.62Z" fill="white"/>
<path d="M201.04 323.62H200.93V331.21H201.04V323.62Z" fill="white"/>
<path d="M201.15 323.62H201.04V331.21H201.15V323.62Z" fill="white"/>
<path d="M201.26 323.62H201.15V331.21H201.26V323.62Z" fill="white"/>
<path d="M201.38 323.62H201.27V331.21H201.38V323.62Z" fill="white"/>
<path d="M201.49 323.62H201.38V331.21H201.49V323.62Z" fill="white"/>
<path d="M201.6 323.62H201.49V331.21H201.6V323.62Z" fill="white"/>
<path d="M201.72 323.62H201.61V331.21H201.72V323.62Z" fill="white"/>
<path d="M201.83 323.62H201.72V331.21H201.83V323.62Z" fill="white"/>
<path d="M201.94 323.62H201.83V331.21H201.94V323.62Z" fill="white"/>
<path d="M202.06 323.62H201.95V331.21H202.06V323.62Z" fill="white"/>
<path d="M202.17 323.62H202.06V331.21H202.17V323.62Z" fill="white"/>
<path d="M202.28 323.62H202.17V331.21H202.28V323.62Z" fill="white"/>
<path d="M202.4 323.62H202.29V331.21H202.4V323.62Z" fill="white"/>
<path d="M202.51 323.62H202.4V331.21H202.51V323.62Z" fill="white"/>
<path d="M202.62 323.62H202.51V331.21H202.62V323.62Z" fill="white"/>
<path d="M202.74 323.62H202.63V331.21H202.74V323.62Z" fill="white"/>
<path d="M202.85 323.62H202.74V331.21H202.85V323.62Z" fill="white"/>
<path d="M202.96 323.62H202.85V331.21H202.96V323.62Z" fill="white"/>
<path d="M203.08 323.62H202.97V331.21H203.08V323.62Z" fill="white"/>
<path d="M203.19 323.62H203.08V331.21H203.19V323.62Z" fill="white"/>
<path d="M203.3 323.62H203.19V331.21H203.3V323.62Z" fill="white"/>
<path d="M203.42 323.62H203.31V331.21H203.42V323.62Z" fill="white"/>
<path d="M203.53 323.62H203.42V331.21H203.53V323.62Z" fill="white"/>
<path d="M203.64 323.62H203.53V331.21H203.64V323.62Z" fill="white"/>
<path d="M203.76 323.62H203.65V331.21H203.76V323.62Z" fill="white"/>
<path d="M203.87 323.62H203.76V331.21H203.87V323.62Z" fill="white"/>
<path d="M203.98 323.62H203.87V331.21H203.98V323.62Z" fill="white"/>
<path d="M204.1 323.62H203.99V331.21H204.1V323.62Z" fill="white"/>
<path d="M204.21 323.62H204.1V331.21H204.21V323.62Z" fill="white"/>
<path d="M204.32 323.62H204.21V331.21H204.32V323.62Z" fill="white"/>
<path d="M204.44 323.62H204.33V331.21H204.44V323.62Z" fill="white"/>
<path d="M204.55 323.62H204.44V331.21H204.55V323.62Z" fill="white"/>
<path d="M204.66 323.62H204.55V331.21H204.66V323.62Z" fill="white"/>
<path d="M204.78 323.62H204.67V331.21H204.78V323.62Z" fill="white"/>
<path d="M204.89 323.62H204.78V331.21H204.89V323.62Z" fill="white"/>
<path d="M205 323.62H204.89V331.21H205V323.62Z" fill="white"/>
<path d="M205.12 323.62H205.01V331.21H205.12V323.62Z" fill="white"/>
<path d="M205.23 323.62H205.12V331.21H205.23V323.62Z" fill="white"/>
<path d="M205.34 323.62H205.23V331.21H205.34V323.62Z" fill="white"/>
<path d="M205.46 323.62H205.35V331.21H205.46V323.62Z" fill="white"/>
<path d="M205.57 323.62H205.46V331.21H205.57V323.62Z" fill="white"/>
<path d="M205.68 323.62H205.57V331.21H205.68V323.62Z" fill="white"/>
<path d="M205.8 323.62H205.69V331.21H205.8V323.62Z" fill="white"/>
<path d="M205.91 323.62H205.8V331.21H205.91V323.62Z" fill="white"/>
<path d="M206.02 323.62H205.91V331.21H206.02V323.62Z" fill="white"/>
<path d="M206.14 323.62H206.03V331.21H206.14V323.62Z" fill="white"/>
<path d="M206.25 323.62H206.14V331.21H206.25V323.62Z" fill="white"/>
<path d="M206.36 323.62H206.25V331.21H206.36V323.62Z" fill="white"/>
<path d="M206.48 323.62H206.37V331.21H206.48V323.62Z" fill="white"/>
<path d="M206.59 323.62H206.48V331.21H206.59V323.62Z" fill="white"/>
<path d="M206.7 323.62H206.59V331.21H206.7V323.62Z" fill="white"/>
<path d="M206.82 323.62H206.71V331.21H206.82V323.62Z" fill="white"/>
<path d="M206.93 323.62H206.82V331.21H206.93V323.62Z" fill="white"/>
<path d="M207.04 323.62H206.93V331.21H207.04V323.62Z" fill="white"/>
<path d="M207.16 323.62H207.05V331.21H207.16V323.62Z" fill="white"/>
<path d="M207.27 323.62H207.16V331.21H207.27V323.62Z" fill="white"/>
<path d="M207.38 323.62H207.27V331.21H207.38V323.62Z" fill="white"/>
<path d="M207.5 323.62H207.39V331.21H207.5V323.62Z" fill="white"/>
<path d="M207.61 323.62H207.5V331.21H207.61V323.62Z" fill="white"/>
<path d="M207.72 323.62H207.61V331.21H207.72V323.62Z" fill="white"/>
</g>
<path d="M207.72 287.17H200.13V316.03H207.72V287.17Z" fill="white"/>
<mask id="mask5_201_12" style="mask-type:luminance" maskUnits="userSpaceOnUse" x="200" y="287" width="8" height="30">
<path d="M207.72 287.17H200.13V316.03H207.72V287.17Z" fill="white"/>
</mask>
<g mask="url(#mask5_201_12)">
<path d="M200.24 287.17H200.13V316.03H200.24V287.17Z" fill="white"/>
<path d="M200.36 287.17H200.25V316.03H200.36V287.17Z" fill="white"/>
<path d="M200.47 287.17H200.36V316.03H200.47V287.17Z" fill="white"/>
<path d="M200.58 287.17H200.47V316.03H200.58V287.17Z" fill="white"/>
<path d="M200.7 287.17H200.59V316.03H200.7V287.17Z" fill="white"/>
<path d="M200.81 287.17H200.7V316.03H200.81V287.17Z" fill="white"/>
<path d="M200.92 287.17H200.81V316.03H200.92V287.17Z" fill="white"/>
<path d="M201.04 287.17H200.93V316.03H201.04V287.17Z" fill="white"/>
<path d="M201.15 287.17H201.04V316.03H201.15V287.17Z" fill="white"/>
<path d="M201.26 287.17H201.15V316.03H201.26V287.17Z" fill="white"/>
<path d="M201.38 287.17H201.27V316.03H201.38V287.17Z" fill="white"/>
<path d="M201.49 287.17H201.38V316.03H201.49V287.17Z" fill="white"/>
<path d="M201.6 287.17H201.49V316.03H201.6V287.17Z" fill="white"/>
<path d="M201.72 287.17H201.61V316.03H201.72V287.17Z" fill="white"/>
<path d="M201.83 287.17H201.72V316.03H201.83V287.17Z" fill="white"/>
<path d="M201.94 287.17H201.83V316.03H201.94V287.17Z" fill="white"/>
<path d="M202.06 287.17H201.95V316.03H202.06V287.17Z" fill="white"/>
<path d="M202.17 287.17H202.06V316.03H202.17V287.17Z" fill="white"/>
<path d="M202.28 287.17H202.17V316.03H202.28V287.17Z" fill="white"/>
<path d="M202.4 287.17H202.29V316.03H202.4V287.17Z" fill="white"/>
<path d="M202.51 287.17H202.4V316.03H202.51V287.17Z" fill="white"/>
<path d="M202.62 287.17H202.51V316.03H202.62V287.17Z" fill="white"/>
<path d="M202.74 287.17H202.63V316.03H202.74V287.17Z" fill="white"/>
<path d="M202.85 287.17H202.74V316.03H202.85V287.17Z" fill="white"/>
<path d="M202.96 287.17H202.85V316.03H202.96V287.17Z" fill="white"/>
<path d="M203.08 287.17H202.97V316.03H203.08V287.17Z" fill="white"/>
<path d="M203.19 287.17H203.08V316.03H203.19V287.17Z" fill="white"/>
<path d="M203.3 287.17H203.19V316.03H203.3V287.17Z" fill="white"/>
<path d="M203.42 287.17H203.31V316.03H203.42V287.17Z" fill="white"/>
<path d="M203.53 287.17H203.42V316.03H203.53V287.17Z" fill="white"/>
<path d="M203.64 287.17H203.53V316.03H203.64V287.17Z" fill="white"/>
<path d="M203.76 287.17H203.65V316.03H203.76V287.17Z" fill="white"/>
<path d="M203.87 287.17H203.76V316.03H203.87V287.17Z" fill="white"/>
<path d="M203.98 287.17H203.87V316.03H203.98V287.17Z" fill="white"/>
<path d="M204.1 287.17H203.99V316.03H204.1V287.17Z" fill="white"/>
<path d="M204.21 287.17H204.1V316.03H204.21V287.17Z" fill="white"/>
<path d="M204.32 287.17H204.21V316.03H204.32V287.17Z" fill="white"/>
<path d="M204.44 287.17H204.33V316.03H204.44V287.17Z" fill="white"/>
<path d="M204.55 287.17H204.44V316.03H204.55V287.17Z" fill="white"/>
<path d="M204.66 287.17H204.55V316.03H204.66V287.17Z" fill="white"/>
<path d="M204.78 287.17H204.67V316.03H204.78V287.17Z" fill="white"/>
<path d="M204.89 287.17H204.78V316.03H204.89V287.17Z" fill="white"/>
<path d="M205 287.17H204.89V316.03H205V287.17Z" fill="white"/>
<path d="M205.12 287.17H205.01V316.03H205.12V287.17Z" fill="white"/>
<path d="M205.23 287.17H205.12V316.03H205.23V287.17Z" fill="white"/>
<path d="M205.34 287.17H205.23V316.03H205.34V287.17Z" fill="white"/>
<path d="M205.46 287.17H205.35V316.03H205.46V287.17Z" fill="white"/>
<path d="M205.57 287.17H205.46V316.03H205.57V287.17Z" fill="white"/>
<path d="M205.68 287.17H205.57V316.03H205.68V287.17Z" fill="white"/>
<path d="M205.8 287.17H205.69V316.03H205.8V287.17Z" fill="white"/>
<path d="M205.91 287.17H205.8V316.03H205.91V287.17Z" fill="white"/>
<path d="M206.02 287.17H205.91V316.03H206.02V287.17Z" fill="white"/>
<path d="M206.14 287.17H206.03V316.03H206.14V287.17Z" fill="white"/>
<path d="M206.25 287.17H206.14V316.03H206.25V287.17Z" fill="white"/>
<path d="M206.36 287.17H206.25V316.03H206.36V287.17Z" fill="white"/>
<path d="M206.48 287.17H206.37V316.03H206.48V287.17Z" fill="white"/>
<path d="M206.59 287.17H206.48V316.03H206.59V287.17Z" fill="white"/>
<path d="M206.7 287.17H206.59V316.03H206.7V287.17Z" fill="white"/>
<path d="M206.82 287.17H206.71V316.03H206.82V287.17Z" fill="white"/>
<path d="M206.93 287.17H206.82V316.03H206.93V287.17Z" fill="white"/>
<path d="M207.04 287.17H206.93V316.03H207.04V287.17Z" fill="white"/>
<path d="M207.16 287.17H207.05V316.03H207.16V287.17Z" fill="white"/>
<path d="M207.27 287.17H207.16V316.03H207.27V287.17Z" fill="white"/>
<path d="M207.38 287.17H207.27V316.03H207.38V287.17Z" fill="white"/>
<path d="M207.5 287.17H207.39V316.03H207.5V287.17Z" fill="white"/>
<path d="M207.61 287.17H207.5V316.03H207.61V287.17Z" fill="white"/>
<path d="M207.72 287.17H207.61V316.03H207.72V287.17Z" fill="white"/>
</g>
<path d="M124.19 323.62H116.6V331.21H124.19V323.62Z" fill="white"/>
<mask id="mask6_201_12" style="mask-type:luminance" maskUnits="userSpaceOnUse" x="116" y="323" width="9" height="9">
<path d="M124.19 323.62H116.6V331.21H124.19V323.62Z" fill="white"/>
</mask>
<g mask="url(#mask6_201_12)">
<path d="M116.71 323.62H116.6V331.21H116.71V323.62Z" fill="white"/>
<path d="M116.82 323.62H116.71V331.21H116.82V323.62Z" fill="white"/>
<path d="M116.93 323.62H116.82V331.21H116.93V323.62Z" fill="white"/>
<path d="M117.05 323.62H116.94V331.21H117.05V323.62Z" fill="white"/>
<path d="M117.16 323.62H117.05V331.21H117.16V323.62Z" fill="white"/>
<path d="M117.27 323.62H117.16V331.21H117.27V323.62Z" fill="white"/>
<path d="M117.39 323.62H117.28V331.21H117.39V323.62Z" fill="white"/>
<path d="M117.5 323.62H117.39V331.21H117.5V323.62Z" fill="white"/>
<path d="M117.61 323.62H117.5V331.21H117.61V323.62Z" fill="white"/>
<path d="M117.73 323.62H117.62V331.21H117.73V323.62Z" fill="white"/>
<path d="M117.84 323.62H117.73V331.21H117.84V323.62Z" fill="white"/>
<path d="M117.95 323.62H117.84V331.21H117.95V323.62Z" fill="white"/>
<path d="M118.07 323.62H117.96V331.21H118.07V323.62Z" fill="white"/>
<path d="M118.18 323.62H118.07V331.21H118.18V323.62Z" fill="white"/>
<path d="M118.29 323.62H118.18V331.21H118.29V323.62Z" fill="white"/>
<path d="M118.41 323.62H118.3V331.21H118.41V323.62Z" fill="white"/>
<path d="M118.52 323.62H118.41V331.21H118.52V323.62Z" fill="white"/>
<path d="M118.63 323.62H118.52V331.21H118.63V323.62Z" fill="white"/>
<path d="M118.75 323.62H118.64V331.21H118.75V323.62Z" fill="white"/>
<path d="M118.86 323.62H118.75V331.21H118.86V323.62Z" fill="white"/>
<path d="M118.97 323.62H118.86V331.21H118.97V323.62Z" fill="white"/>
<path d="M119.09 323.62H118.98V331.21H119.09V323.62Z" fill="white"/>
<path d="M119.2 323.62H119.09V331.21H119.2V323.62Z" fill="white"/>
<path d="M119.31 323.62H119.2V331.21H119.31V323.62Z" fill="white"/>
<path d="M119.43 323.62H119.32V331.21H119.43V323.62Z" fill="white"/>
<path d="M119.54 323.62H119.43V331.21H119.54V323.62Z" fill="white"/>
<path d="M119.65 323.62H119.54V331.21H119.65V323.62Z" fill="white"/>
<path d="M119.77 323.62H119.66V331.21H119.77V323.62Z" fill="white"/>
<path d="M119.88 323.62H119.77V331.21H119.88V323.62Z" fill="white"/>
<path d="M119.99 323.62H119.88V331.21H119.99V323.62Z" fill="white"/>
<path d="M120.11 323.62H120V331.21H120.11V323.62Z" fill="white"/>
<path d="M120.22 323.62H120.11V331.21H120.22V323.62Z" fill="white"/>
<path d="M120.33 323.62H120.22V331.21H120.33V323.62Z" fill="white"/>
<path d="M120.45 323.62H120.34V331.21H120.45V323.62Z" fill="white"/>
<path d="M120.56 323.62H120.45V331.21H120.56V323.62Z" fill="white"/>
<path d="M120.67 323.62H120.56V331.21H120.67V323.62Z" fill="white"/>
<path d="M120.79 323.62H120.68V331.21H120.79V323.62Z" fill="white"/>
<path d="M120.9 323.62H120.79V331.21H120.9V323.62Z" fill="white"/>
<path d="M121.01 323.62H120.9V331.21H121.01V323.62Z" fill="white"/>
<path d="M121.13 323.62H121.02V331.21H121.13V323.62Z" fill="white"/>
<path d="M121.24 323.62H121.13V331.21H121.24V323.62Z" fill="white"/>
<path d="M121.35 323.62H121.24V331.21H121.35V323.62Z" fill="white"/>
<path d="M121.47 323.62H121.36V331.21H121.47V323.62Z" fill="white"/>
<path d="M121.58 323.62H121.47V331.21H121.58V323.62Z" fill="white"/>
<path d="M121.69 323.62H121.58V331.21H121.69V323.62Z" fill="white"/>
<path d="M121.81 323.62H121.7V331.21H121.81V323.62Z" fill="white"/>
<path d="M121.92 323.62H121.81V331.21H121.92V323.62Z" fill="white"/>
<path d="M122.04 323.62H121.93V331.21H122.04V323.62Z" fill="white"/>
<path d="M122.15 323.62H122.04V331.21H122.15V323.62Z" fill="white"/>
<path d="M122.26 323.62H122.15V331.21H122.26V323.62Z" fill="white"/>
<path d="M122.38 323.62H122.27V331.21H122.38V323.62Z" fill="white"/>
<path d="M122.49 323.62H122.38V331.21H122.49V323.62Z" fill="white"/>
<path d="M122.6 323.62H122.49V331.21H122.6V323.62Z" fill="white"/>
<path d="M122.72 323.62H122.61V331.21H122.72V323.62Z" fill="white"/>
<path d="M122.83 323.62H122.72V331.21H122.83V323.62Z" fill="white"/>
<path d="M122.94 323.62H122.83V331.21H122.94V323.62Z" fill="white"/>
<path d="M123.06 323.62H122.95V331.21H123.06V323.62Z" fill="white"/>
<path d="M123.17 323.62H123.06V331.21H123.17V323.62Z" fill="white"/>
<path d="M123.28 323.62H123.17V331.21H123.28V323.62Z" fill="white"/>
<path d="M123.4 323.62H123.29V331.21H123.4V323.62Z" fill="white"/>
<path d="M123.51 323.62H123.4V331.21H123.51V323.62Z" fill="white"/>
<path d="M123.62 323.62H123.51V331.21H123.62V323.62Z" fill="white"/>
<path d="M123.74 323.62H123.63V331.21H123.74V323.62Z" fill="white"/>
<path d="M123.85 323.62H123.74V331.21H123.85V323.62Z" fill="white"/>
<path d="M123.96 323.62H123.85V331.21H123.96V323.62Z" fill="white"/>
<path d="M124.08 323.62H123.97V331.21H124.08V323.62Z" fill="white"/>
<path d="M124.19 323.62H124.08V331.21H124.19V323.62Z" fill="white"/>
</g>
<path d="M124.19 287.17H116.6V316.03H124.19V287.17Z" fill="white"/>
<mask id="mask7_201_12" style="mask-type:luminance" maskUnits="userSpaceOnUse" x="116" y="287" width="9" height="30">
<path d="M124.19 287.17H116.6V316.03H124.19V287.17Z" fill="white"/>
</mask>
<g mask="url(#mask7_201_12)">
<path d="M116.71 287.17H116.6V316.03H116.71V287.17Z" fill="white"/>
<path d="M116.82 287.17H116.71V316.03H116.82V287.17Z" fill="white"/>
<path d="M116.93 287.17H116.82V316.03H116.93V287.17Z" fill="white"/>
<path d="M117.05 287.17H116.94V316.03H117.05V287.17Z" fill="white"/>
<path d="M117.16 287.17H117.05V316.03H117.16V287.17Z" fill="white"/>
<path d="M117.27 287.17H117.16V316.03H117.27V287.17Z" fill="white"/>
<path d="M117.39 287.17H117.28V316.03H117.39V287.17Z" fill="white"/>
<path d="M117.5 287.17H117.39V316.03H117.5V287.17Z" fill="white"/>
<path d="M117.61 287.17H117.5V316.03H117.61V287.17Z" fill="white"/>
<path d="M117.73 287.17H117.62V316.03H117.73V287.17Z" fill="white"/>
<path d="M117.84 287.17H117.73V316.03H117.84V287.17Z" fill="white"/>
<path d="M117.95 287.17H117.84V316.03H117.95V287.17Z" fill="white"/>
<path d="M118.07 287.17H117.96V316.03H118.07V287.17Z" fill="white"/>
<path d="M118.18 287.17H118.07V316.03H118.18V287.17Z" fill="white"/>
<path d="M118.29 287.17H118.18V316.03H118.29V287.17Z" fill="white"/>
<path d="M118.41 287.17H118.3V316.03H118.41V287.17Z" fill="white"/>
<path d="M118.52 287.17H118.41V316.03H118.52V287.17Z" fill="white"/>
<path d="M118.63 287.17H118.52V316.03H118.63V287.17Z" fill="white"/>
<path d="M118.75 287.17H118.64V316.03H118.75V287.17Z" fill="white"/>
<path d="M118.86 287.17H118.75V316.03H118.86V287.17Z" fill="white"/>
<path d="M118.97 287.17H118.86V316.03H118.97V287.17Z" fill="white"/>
<path d="M119.09 287.17H118.98V316.03H119.09V287.17Z" fill="white"/>
<path d="M119.2 287.17H119.09V316.03H119.2V287.17Z" fill="white"/>
<path d="M119.31 287.17H119.2V316.03H119.31V287.17Z" fill="white"/>
<path d="M119.43 287.17H119.32V316.03H119.43V287.17Z" fill="white"/>
<path d="M119.54 287.17H119.43V316.03H119.54V287.17Z" fill="white"/>
<path d="M119.65 287.17H119.54V316.03H119.65V287.17Z" fill="white"/>
<path d="M119.77 287.17H119.66V316.03H119.77V287.17Z" fill="white"/>
<path d="M119.88 287.17H119.77V316.03H119.88V287.17Z" fill="white"/>
<path d="M119.99 287.17H119.88V316.03H119.99V287.17Z" fill="white"/>
<path d="M120.11 287.17H120V316.03H120.11V287.17Z" fill="white"/>
<path d="M120.22 287.17H120.11V316.03H120.22V287.17Z" fill="white"/>
<path d="M120.33 287.17H120.22V316.03H120.33V287.17Z" fill="white"/>
<path d="M120.45 287.17H120.34V316.03H120.45V287.17Z" fill="white"/>
<path d="M120.56 287.17H120.45V316.03H120.56V287.17Z" fill="white"/>
<path d="M120.67 287.17H120.56V316.03H120.67V287.17Z" fill="white"/>
<path d="M120.79 287.17H120.68V316.03H120.79V287.17Z" fill="white"/>
<path d="M120.9 287.17H120.79V316.03H120.9V287.17Z" fill="white"/>
<path d="M121.01 287.17H120.9V316.03H121.01V287.17Z" fill="white"/>
<path d="M121.13 287.17H121.02V316.03H121.13V287.17Z" fill="white"/>
<path d="M121.24 287.17H121.13V316.03H121.24V287.17Z" fill="white"/>
<path d="M121.35 287.17H121.24V316.03H121.35V287.17Z" fill="white"/>
<path d="M121.47 287.17H121.36V316.03H121.47V287.17Z" fill="white"/>
<path d="M121.58 287.17H121.47V316.03H121.58V287.17Z" fill="white"/>
<path d="M121.69 287.17H121.58V316.03H121.69V287.17Z" fill="white"/>
<path d="M121.81 287.17H121.7V316.03H121.81V287.17Z" fill="white"/>
<path d="M121.92 287.17H121.81V316.03H121.92V287.17Z" fill="white"/>
<path d="M122.04 287.17H121.93V316.03H122.04V287.17Z" fill="white"/>
<path d="M122.15 287.17H122.04V316.03H122.15V287.17Z" fill="white"/>
<path d="M122.26 287.17H122.15V316.03H122.26V287.17Z" fill="white"/>
<path d="M122.38 287.17H122.27V316.03H122.38V287.17Z" fill="white"/>
<path d="M122.49 287.17H122.38V316.03H122.49V287.17Z" fill="white"/>
<path d="M122.6 287.17H122.49V316.03H122.6V287.17Z" fill="white"/>
<path d="M122.72 287.17H122.61V316.03H122.72V287.17Z" fill="white"/>
<path d="M122.83 287.17H122.72V316.03H122.83V287.17Z" fill="white"/>
<path d="M122.94 287.17H122.83V316.03H122.94V287.17Z" fill="white"/>
<path d="M123.06 287.17H122.95V316.03H123.06V287.17Z" fill="white"/>
<path d="M123.17 287.17H123.06V316.03H123.17V287.17Z" fill="white"/>
<path d="M123.28 287.17H123.17V316.03H123.28V287.17Z" fill="white"/>
<path d="M123.4 287.17H123.29V316.03H123.4V287.17Z" fill="white"/>
<path d="M123.51 287.17H123.4V316.03H123.51V287.17Z" fill="white"/>
<path d="M123.62 287.17H123.51V316.03H123.62V287.17Z" fill="white"/>
<path d="M123.74 287.17H123.63V316.03H123.74V287.17Z" fill="white"/>
<path d="M123.85 287.17H123.74V316.03H123.85V287.17Z" fill="white"/>
<path d="M123.96 287.17H123.85V316.03H123.96V287.17Z" fill="white"/>
<path d="M124.08 287.17H123.97V316.03H124.08V287.17Z" fill="white"/>
<path d="M124.19 287.17H124.08V316.03H124.19V287.17Z" fill="white"/>
</g>
<path d="M146.97 294.77H139.38V338.82H146.97V294.77Z" fill="white"/>
<mask id="mask8_201_12" style="mask-type:luminance" maskUnits="userSpaceOnUse" x="139" y="294" width="8" height="45">
<path d="M146.97 294.77H139.38V338.82H146.97V294.77Z" fill="white"/>
</mask>
<g mask="url(#mask8_201_12)">
<path d="M139.49 294.77H139.38V338.82H139.49V294.77Z" fill="white"/>
<path d="M139.6 294.77H139.49V338.82H139.6V294.77Z" fill="white"/>
<path d="M139.72 294.77H139.61V338.82H139.72V294.77Z" fill="white"/>
<path d="M139.83 294.77H139.72V338.82H139.83V294.77Z" fill="white"/>
<path d="M139.94 294.77H139.83V338.82H139.94V294.77Z" fill="white"/>
<path d="M140.06 294.77H139.95V338.82H140.06V294.77Z" fill="white"/>
<path d="M140.17 294.77H140.06V338.82H140.17V294.77Z" fill="white"/>
<path d="M140.28 294.77H140.17V338.82H140.28V294.77Z" fill="white"/>
<path d="M140.4 294.77H140.29V338.82H140.4V294.77Z" fill="white"/>
<path d="M140.51 294.77H140.4V338.82H140.51V294.77Z" fill="white"/>
<path d="M140.62 294.77H140.51V338.82H140.62V294.77Z" fill="white"/>
<path d="M140.74 294.77H140.63V338.82H140.74V294.77Z" fill="white"/>
<path d="M140.85 294.77H140.74V338.82H140.85V294.77Z" fill="white"/>
<path d="M140.96 294.77H140.85V338.82H140.96V294.77Z" fill="white"/>
<path d="M141.08 294.77H140.97V338.82H141.08V294.77Z" fill="white"/>
<path d="M141.19 294.77H141.08V338.82H141.19V294.77Z" fill="white"/>
<path d="M141.3 294.77H141.19V338.82H141.3V294.77Z" fill="white"/>
<path d="M141.42 294.77H141.31V338.82H141.42V294.77Z" fill="white"/>
<path d="M141.53 294.77H141.42V338.82H141.53V294.77Z" fill="white"/>
<path d="M141.64 294.77H141.53V338.82H141.64V294.77Z" fill="white"/>
<path d="M141.76 294.77H141.65V338.82H141.76V294.77Z" fill="white"/>
<path d="M141.87 294.77H141.76V338.82H141.87V294.77Z" fill="white"/>
<path d="M141.98 294.77H141.87V338.82H141.98V294.77Z" fill="white"/>
<path d="M142.1 294.77H141.99V338.82H142.1V294.77Z" fill="white"/>
<path d="M142.21 294.77H142.1V338.82H142.21V294.77Z" fill="white"/>
<path d="M142.32 294.77H142.21V338.82H142.32V294.77Z" fill="white"/>
<path d="M142.44 294.77H142.33V338.82H142.44V294.77Z" fill="white"/>
<path d="M142.55 294.77H142.44V338.82H142.55V294.77Z" fill="white"/>
<path d="M142.66 294.77H142.55V338.82H142.66V294.77Z" fill="white"/>
<path d="M142.78 294.77H142.67V338.82H142.78V294.77Z" fill="white"/>
<path d="M142.89 294.77H142.78V338.82H142.89V294.77Z" fill="white"/>
<path d="M143 294.77H142.89V338.82H143V294.77Z" fill="white"/>
<path d="M143.12 294.77H143.01V338.82H143.12V294.77Z" fill="white"/>
<path d="M143.23 294.77H143.12V338.82H143.23V294.77Z" fill="white"/>
<path d="M143.34 294.77H143.23V338.82H143.34V294.77Z" fill="white"/>
<path d="M143.46 294.77H143.35V338.82H143.46V294.77Z" fill="white"/>
<path d="M143.57 294.77H143.46V338.82H143.57V294.77Z" fill="white"/>
<path d="M143.68 294.77H143.57V338.82H143.68V294.77Z" fill="white"/>
<path d="M143.8 294.77H143.69V338.82H143.8V294.77Z" fill="white"/>
<path d="M143.91 294.77H143.8V338.82H143.91V294.77Z" fill="white"/>
<path d="M144.02 294.77H143.91V338.82H144.02V294.77Z" fill="white"/>
<path d="M144.14 294.77H144.03V338.82H144.14V294.77Z" fill="white"/>
<path d="M144.25 294.77H144.14V338.82H144.25V294.77Z" fill="white"/>
<path d="M144.36 294.77H144.25V338.82H144.36V294.77Z" fill="white"/>
<path d="M144.48 294.77H144.37V338.82H144.48V294.77Z" fill="white"/>
<path d="M144.59 294.77H144.48V338.82H144.59V294.77Z" fill="white"/>
<path d="M144.7 294.77H144.59V338.82H144.7V294.77Z" fill="white"/>
<path d="M144.82 294.77H144.71V338.82H144.82V294.77Z" fill="white"/>
<path d="M144.93 294.77H144.82V338.82H144.93V294.77Z" fill="white"/>
<path d="M145.04 294.77H144.93V338.82H145.04V294.77Z" fill="white"/>
<path d="M145.16 294.77H145.05V338.82H145.16V294.77Z" fill="white"/>
<path d="M145.27 294.77H145.16V338.82H145.27V294.77Z" fill="white"/>
<path d="M145.38 294.77H145.27V338.82H145.38V294.77Z" fill="white"/>
<path d="M145.5 294.77H145.39V338.82H145.5V294.77Z" fill="white"/>
<path d="M145.61 294.77H145.5V338.82H145.61V294.77Z" fill="white"/>
<path d="M145.72 294.77H145.61V338.82H145.72V294.77Z" fill="white"/>
<path d="M145.84 294.77H145.73V338.82H145.84V294.77Z" fill="white"/>
<path d="M145.95 294.77H145.84V338.82H145.95V294.77Z" fill="white"/>
<path d="M146.06 294.77H145.95V338.82H146.06V294.77Z" fill="white"/>
<path d="M146.18 294.77H146.07V338.82H146.18V294.77Z" fill="white"/>
<path d="M146.29 294.77H146.18V338.82H146.29V294.77Z" fill="white"/>
<path d="M146.4 294.77H146.29V338.82H146.4V294.77Z" fill="white"/>
<path d="M146.52 294.77H146.41V338.82H146.52V294.77Z" fill="white"/>
<path d="M146.63 294.77H146.52V338.82H146.63V294.77Z" fill="white"/>
<path d="M146.74 294.77H146.63V338.82H146.74V294.77Z" fill="white"/>
<path d="M146.86 294.77H146.75V338.82H146.86V294.77Z" fill="white"/>
<path d="M146.97 294.77H146.86V338.82H146.97V294.77Z" fill="white"/>
</g>
<path d="M227.52 278.54L222.8 259.67L215.43 261.51L218.29 272.93C209.531 274.565 200.657 275.498 191.75 275.72L186.91 229.72C186.259 223.61 183.371 217.956 178.802 213.848C174.232 209.739 168.305 207.466 162.16 207.466C156.015 207.466 150.087 209.739 145.518 213.848C140.949 217.956 138.061 223.61 137.41 229.72L132.57 275.72C123.653 275.504 114.767 274.571 106 272.93L108.85 261.51L101.48 259.67L96.7998 278.54L100.49 279.46C111.99 282.34 125.35 283.1 131.77 283.3L131.49 286.01L134.38 287.01C152.518 292.33 171.802 292.33 189.94 287.01L192.84 286.01L192.55 283.3C198.97 283.1 212.33 282.3 223.84 279.46L227.52 278.54ZM162.16 283.37C154.585 283.35 147.041 282.417 139.69 280.59L145 230.51C145.447 226.261 147.451 222.329 150.627 219.47C153.802 216.612 157.923 215.03 162.195 215.03C166.467 215.03 170.588 216.612 173.763 219.47C176.938 222.329 178.943 226.261 179.39 230.51L184.66 280.59C177.301 282.43 169.745 283.363 162.16 283.37Z" fill="white"/>
<mask id="mask9_201_12" style="mask-type:luminance" maskUnits="userSpaceOnUse" x="96" y="207" width="132" height="85">
<path d="M227.52 278.54L222.8 259.67L215.43 261.51L218.29 272.93C209.531 274.565 200.657 275.498 191.75 275.72L186.91 229.72C186.259 223.61 183.371 217.956 178.802 213.848C174.232 209.739 168.305 207.466 162.16 207.466C156.015 207.466 150.087 209.739 145.518 213.848C140.949 217.956 138.061 223.61 137.41 229.72L132.57 275.72C123.653 275.504 114.767 274.571 106 272.93L108.85 261.51L101.48 259.67L96.7998 278.54L100.49 279.46C111.99 282.34 125.35 283.1 131.77 283.3L131.49 286.01L134.38 287.01C152.518 292.33 171.802 292.33 189.94 287.01L192.84 286.01L192.55 283.3C198.97 283.1 212.33 282.3 223.84 279.46L227.52 278.54ZM162.16 283.37C154.585 283.35 147.041 282.417 139.69 280.59L145 230.51C145.447 226.261 147.451 222.329 150.627 219.47C153.802 216.612 157.923 215.03 162.195 215.03C166.467 215.03 170.588 216.612 173.763 219.47C176.938 222.329 178.943 226.261 179.39 230.51L184.66 280.59C177.301 282.43 169.745 283.363 162.16 283.37Z" fill="white"/>
</mask>
<g mask="url(#mask9_201_12)">
<path d="M139.72 215.03H139.69V283.38H139.72V215.03Z" fill="white"/>
<path d="M141.68 215.03H139.73V283.38H141.68V215.03Z" fill="white"/>
<path d="M143.63 215.03H141.68V283.38H143.63V215.03Z" fill="white"/>
<path d="M145.58 215.03H143.63V283.38H145.58V215.03Z" fill="white"/>
<path d="M147.53 215.03H145.58V283.38H147.53V215.03Z" fill="white"/>
<path d="M149.48 215.03H147.53V283.38H149.48V215.03Z" fill="white"/>
<path d="M151.43 215.03H149.48V283.38H151.43V215.03Z" fill="white"/>
<path d="M153.38 215.03H151.43V283.38H153.38V215.03Z" fill="white"/>
<path d="M155.33 215.03H153.38V283.38H155.33V215.03Z" fill="white"/>
<path d="M157.28 215.03H155.33V283.38H157.28V215.03Z" fill="white"/>
<path d="M159.23 215.03H157.28V283.38H159.23V215.03Z" fill="white"/>
<path d="M161.19 215.03H159.24V283.38H161.19V215.03Z" fill="white"/>
<path d="M163.14 215.03H161.19V283.38H163.14V215.03Z" fill="white"/>
<path d="M165.09 215.03H163.14V283.38H165.09V215.03Z" fill="white"/>
<path d="M167.04 215.03H165.09V283.38H167.04V215.03Z" fill="white"/>
<path d="M168.99 215.03H167.04V283.38H168.99V215.03Z" fill="white"/>
<path d="M170.94 215.03H168.99V283.38H170.94V215.03Z" fill="white"/>
<path d="M172.89 215.03H170.94V283.38H172.89V215.03Z" fill="white"/>
<path d="M174.84 215.03H172.89V283.38H174.84V215.03Z" fill="white"/>
<path d="M176.79 215.03H174.84V283.38H176.79V215.03Z" fill="white"/>
<path d="M178.74 215.03H176.79V283.38H178.74V215.03Z" fill="white"/>
<path d="M180.7 215.03H178.75V283.38H180.7V215.03Z" fill="white"/>
<path d="M182.65 215.03H180.7V283.38H182.65V215.03Z" fill="white"/>
<path d="M184.6 215.03H182.65V283.38H184.6V215.03Z" fill="white"/>
<path d="M184.63 215.03H184.6V283.38H184.63V215.03Z" fill="white"/>
<path d="M98.7498 207.43H96.7998V290.96H98.7498V207.43Z" fill="white"/>
<path d="M100.71 207.43H98.7598V290.96H100.71V207.43Z" fill="white"/>
<path d="M102.66 207.43H100.71V290.96H102.66V207.43Z" fill="white"/>
<path d="M104.61 207.43H102.66V290.96H104.61V207.43Z" fill="white"/>
<path d="M106.56 207.43H104.61V290.96H106.56V207.43Z" fill="white"/>
<path d="M108.51 207.43H106.56V290.96H108.51V207.43Z" fill="white"/>
<path d="M110.46 207.43H108.51V290.96H110.46V207.43Z" fill="white"/>
<path d="M112.41 207.43H110.46V290.96H112.41V207.43Z" fill="white"/>
<path d="M114.36 207.43H112.41V290.96H114.36V207.43Z" fill="white"/>
<path d="M116.31 207.43H114.36V290.96H116.31V207.43Z" fill="white"/>
<path d="M118.26 207.43H116.31V290.96H118.26V207.43Z" fill="white"/>
<path d="M120.22 207.43H118.27V290.96H120.22V207.43Z" fill="white"/>
<path d="M122.17 207.43H120.22V290.96H122.17V207.43Z" fill="white"/>
<path d="M124.12 207.43H122.17V290.96H124.12V207.43Z" fill="white"/>
<path d="M126.07 207.43H124.12V290.96H126.07V207.43Z" fill="white"/>
<path d="M128.02 207.43H126.07V290.96H128.02V207.43Z" fill="white"/>
<path d="M129.97 207.43H128.02V290.96H129.97V207.43Z" fill="white"/>
<path d="M131.92 207.43H129.97V290.96H131.92V207.43Z" fill="white"/>
<path d="M133.87 207.43H131.92V290.96H133.87V207.43Z" fill="white"/>
<path d="M135.82 207.43H133.87V290.96H135.82V207.43Z" fill="white"/>
<path d="M137.77 207.43H135.82V290.96H137.77V207.43Z" fill="white"/>
<path d="M139.72 207.43H137.77V290.96H139.72V207.43Z" fill="white"/>
<path d="M141.68 207.43H139.73V290.96H141.68V207.43Z" fill="white"/>
<path d="M143.63 207.43H141.68V290.96H143.63V207.43Z" fill="white"/>
<path d="M145.58 207.43H143.63V290.96H145.58V207.43Z" fill="white"/>
<path d="M147.53 207.43H145.58V290.96H147.53V207.43Z" fill="white"/>
<path d="M149.48 207.43H147.53V290.96H149.48V207.43Z" fill="white"/>
<path d="M151.43 207.43H149.48V290.96H151.43V207.43Z" fill="white"/>
<path d="M153.38 207.43H151.43V290.96H153.38V207.43Z" fill="white"/>
<path d="M155.33 207.43H153.38V290.96H155.33V207.43Z" fill="white"/>
<path d="M157.28 207.43H155.33V290.96H157.28V207.43Z" fill="white"/>
<path d="M159.23 207.43H157.28V290.96H159.23V207.43Z" fill="white"/>
<path d="M161.19 207.43H159.24V290.96H161.19V207.43Z" fill="white"/>
<path d="M163.14 207.43H161.19V290.96H163.14V207.43Z" fill="white"/>
<path d="M165.09 207.43H163.14V290.96H165.09V207.43Z" fill="white"/>
<path d="M167.04 207.43H165.09V290.96H167.04V207.43Z" fill="white"/>
<path d="M168.99 207.43H167.04V290.96H168.99V207.43Z" fill="white"/>
<path d="M170.94 207.43H168.99V290.96H170.94V207.43Z" fill="white"/>
<path d="M172.89 207.43H170.94V290.96H172.89V207.43Z" fill="white"/>
<path d="M174.84 207.43H172.89V290.96H174.84V207.43Z" fill="white"/>
<path d="M176.79 207.43H174.84V290.96H176.79V207.43Z" fill="white"/>
<path d="M178.74 207.43H176.79V290.96H178.74V207.43Z" fill="white"/>
<path d="M180.7 207.43H178.75V290.96H180.7V207.43Z" fill="white"/>
<path d="M182.65 207.43H180.7V290.96H182.65V207.43Z" fill="white"/>
<path d="M184.6 207.43H182.65V290.96H184.6V207.43Z" fill="white"/>
<path d="M186.55 207.43H184.6V290.96H186.55V207.43Z" fill="white"/>
<path d="M188.5 207.43H186.55V290.96H188.5V207.43Z" fill="white"/>
<path d="M190.45 207.43H188.5V290.96H190.45V207.43Z" fill="white"/>
<path d="M192.4 207.43H190.45V290.96H192.4V207.43Z" fill="white"/>
<path d="M194.35 207.43H192.4V290.96H194.35V207.43Z" fill="white"/>
<path d="M196.3 207.43H194.35V290.96H196.3V207.43Z" fill="white"/>
<path d="M198.25 207.43H196.3V290.96H198.25V207.43Z" fill="white"/>
<path d="M200.21 207.43H198.26V290.96H200.21V207.43Z" fill="white"/>
<path d="M202.16 207.43H200.21V290.96H202.16V207.43Z" fill="white"/>
<path d="M204.11 207.43H202.16V290.96H204.11V207.43Z" fill="white"/>
<path d="M206.06 207.43H204.11V290.96H206.06V207.43Z" fill="white"/>
<path d="M208.01 207.43H206.06V290.96H208.01V207.43Z" fill="white"/>
<path d="M209.96 207.43H208.01V290.96H209.96V207.43Z" fill="white"/>
<path d="M211.91 207.43H209.96V290.96H211.91V207.43Z" fill="white"/>
<path d="M213.86 207.43H211.91V290.96H213.86V207.43Z" fill="white"/>
<path d="M215.81 207.43H213.86V290.96H215.81V207.43Z" fill="white"/>
<path d="M217.76 207.43H215.81V290.96H217.76V207.43Z" fill="white"/>
<path d="M219.72 207.43H217.77V290.96H219.72V207.43Z" fill="white"/>
<path d="M221.67 207.43H219.72V290.96H221.67V207.43Z" fill="white"/>
<path d="M223.62 207.43H221.67V290.96H223.62V207.43Z" fill="white"/>
<path d="M225.57 207.43H223.62V290.96H225.57V207.43Z" fill="white"/>
<path d="M227.52 207.43H225.57V290.96H227.52V207.43Z" fill="white"/>
</g>
<path d="M222.91 196.91V112.51C222.91 94.51 203.02 82.51 196.29 79C195.759 58.9577 189.038 39.5709 177.05 23.5C175.318 21.1881 173.071 19.3114 170.487 18.0189C167.903 16.7263 165.054 16.0533 162.165 16.0533C159.276 16.0533 156.427 16.7263 153.843 18.0189C151.26 19.3114 149.012 21.1881 147.28 23.5C137.11 37.07 128.77 61.38 128.06 79C121.34 82.53 101.41 94.52 101.41 112.52V196.92L63.4102 228.44V260.06L66.6302 260.56C67.1302 260.63 116.8 268.2 162.13 268.2C207.46 268.2 257.13 260.63 257.63 260.56L260.85 260.06V228.43L222.91 196.91ZM215.32 112.51V190.61L209.16 185.49C205.15 182.297 201.914 178.239 199.694 173.618C197.474 168.998 196.328 163.936 196.34 158.81V87.81C203.51 92.16 215.32 101.1 215.32 112.51ZM109 112.51C109 101.1 120.81 92.16 128 87.78V158.78C128.007 163.918 126.852 168.991 124.622 173.62C122.391 178.249 119.143 182.314 115.12 185.51L109 190.61V112.51ZM253.29 253.51C242 255.11 203 260.24 166 260.57V211.23H158.41V260.57C121.36 260.24 82.3502 255.11 71.0702 253.51V232L119.95 191.42C124.851 187.517 128.805 182.556 131.519 176.909C134.232 171.262 135.634 165.075 135.62 158.81V81.37C135.62 65.32 143.76 40.9 153.39 28.06C154.414 26.69 155.744 25.5778 157.273 24.8117C158.803 24.0456 160.49 23.6467 162.2 23.6467C163.911 23.6467 165.598 24.0456 167.127 24.8117C168.656 25.5778 169.986 26.69 171.01 28.06C182.509 43.4581 188.741 62.1519 188.78 81.37V158.81C188.764 165.066 190.162 171.244 192.868 176.884C195.575 182.523 199.52 187.479 204.41 191.38L253.29 232V253.51Z" fill="white"/>
<mask id="mask10_201_12" style="mask-type:luminance" maskUnits="userSpaceOnUse" x="63" y="16" width="198" height="253">
<path d="M222.91 196.91V112.51C222.91 94.51 203.02 82.51 196.29 79C195.759 58.9577 189.038 39.5709 177.05 23.5C175.318 21.1881 173.071 19.3114 170.487 18.0189C167.903 16.7263 165.054 16.0533 162.165 16.0533C159.276 16.0533 156.427 16.7263 153.843 18.0189C151.26 19.3114 149.012 21.1881 147.28 23.5C137.11 37.07 128.77 61.38 128.06 79C121.34 82.53 101.41 94.52 101.41 112.52V196.92L63.4102 228.44V260.06L66.6302 260.56C67.1302 260.63 116.8 268.2 162.13 268.2C207.46 268.2 257.13 260.63 257.63 260.56L260.85 260.06V228.43L222.91 196.91ZM215.32 112.51V190.61L209.16 185.49C205.15 182.297 201.914 178.239 199.694 173.618C197.474 168.998 196.328 163.936 196.34 158.81V87.81C203.51 92.16 215.32 101.1 215.32 112.51ZM109 112.51C109 101.1 120.81 92.16 128 87.78V158.78C128.007 163.918 126.852 168.991 124.622 173.62C122.391 178.249 119.143 182.314 115.12 185.51L109 190.61V112.51ZM253.29 253.51C242 255.11 203 260.24 166 260.57V211.23H158.41V260.57C121.36 260.24 82.3502 255.11 71.0702 253.51V232L119.95 191.42C124.851 187.517 128.805 182.556 131.519 176.909C134.232 171.262 135.634 165.075 135.62 158.81V81.37C135.62 65.32 143.76 40.9 153.39 28.06C154.414 26.69 155.744 25.5778 157.273 24.8117C158.803 24.0456 160.49 23.6467 162.2 23.6467C163.911 23.6467 165.598 24.0456 167.127 24.8117C168.656 25.5778 169.986 26.69 171.01 28.06C182.509 43.4581 188.741 62.1519 188.78 81.37V158.81C188.764 165.066 190.162 171.244 192.868 176.884C195.575 182.523 199.52 187.479 204.41 191.38L253.29 232V253.51Z" fill="white"/>
</mask>
<g mask="url(#mask10_201_12)">
<path d="M72.2798 23.66H71.0298V260.58H72.2798V23.66Z" fill="white"/>
<path d="M75.2298 23.66H72.2798V260.58H75.2298V23.66Z" fill="white"/>
<path d="M78.18 23.66H75.23V260.58H78.18V23.66Z" fill="white"/>
<path d="M81.1199 23.66H78.1699V260.58H81.1199V23.66Z" fill="white"/>
<path d="M84.0701 23.66H81.1201V260.58H84.0701V23.66Z" fill="white"/>
<path d="M87.0198 23.66H84.0698V260.58H87.0198V23.66Z" fill="white"/>
<path d="M89.97 23.66H87.02V260.58H89.97V23.66Z" fill="white"/>
<path d="M92.91 23.66H89.96V260.58H92.91V23.66Z" fill="white"/>
<path d="M95.8602 23.66H92.9102V260.58H95.8602V23.66Z" fill="white"/>
<path d="M98.8099 23.66H95.8599V260.58H98.8099V23.66Z" fill="white"/>
<path d="M101.75 23.66H98.7998V260.58H101.75V23.66Z" fill="white"/>
<path d="M104.7 23.66H101.75V260.58H104.7V23.66Z" fill="white"/>
<path d="M107.65 23.66H104.7V260.58H107.65V23.66Z" fill="white"/>
<path d="M110.59 23.66H107.64V260.58H110.59V23.66Z" fill="white"/>
<path d="M113.54 23.66H110.59V260.58H113.54V23.66Z" fill="white"/>
<path d="M116.49 23.66H113.54V260.58H116.49V23.66Z" fill="white"/>
<path d="M119.43 23.66H116.48V260.58H119.43V23.66Z" fill="white"/>
<path d="M122.38 23.66H119.43V260.58H122.38V23.66Z" fill="white"/>
<path d="M125.33 23.66H122.38V260.58H125.33V23.66Z" fill="white"/>
<path d="M128.28 23.66H125.33V260.58H128.28V23.66Z" fill="white"/>
<path d="M131.22 23.66H128.27V260.58H131.22V23.66Z" fill="white"/>
<path d="M134.17 23.66H131.22V260.58H134.17V23.66Z" fill="white"/>
<path d="M137.12 23.66H134.17V260.58H137.12V23.66Z" fill="white"/>
<path d="M140.06 23.66H137.11V260.58H140.06V23.66Z" fill="white"/>
<path d="M143.01 23.66H140.06V260.58H143.01V23.66Z" fill="white"/>
<path d="M145.96 23.66H143.01V260.58H145.96V23.66Z" fill="white"/>
<path d="M148.9 23.66H145.95V260.58H148.9V23.66Z" fill="white"/>
<path d="M151.85 23.66H148.9V260.58H151.85V23.66Z" fill="white"/>
<path d="M154.8 23.66H151.85V260.58H154.8V23.66Z" fill="white"/>
<path d="M157.74 23.66H154.79V260.58H157.74V23.66Z" fill="white"/>
<path d="M160.69 23.66H157.74V260.58H160.69V23.66Z" fill="white"/>
<path d="M163.64 23.66H160.69V260.58H163.64V23.66Z" fill="white"/>
<path d="M166.59 23.66H163.64V260.58H166.59V23.66Z" fill="white"/>
<path d="M169.53 23.66H166.58V260.58H169.53V23.66Z" fill="white"/>
<path d="M172.48 23.66H169.53V260.58H172.48V23.66Z" fill="white"/>
<path d="M175.43 23.66H172.48V260.58H175.43V23.66Z" fill="white"/>
<path d="M178.37 23.66H175.42V260.58H178.37V23.66Z" fill="white"/>
<path d="M181.32 23.66H178.37V260.58H181.32V23.66Z" fill="white"/>
<path d="M184.27 23.66H181.32V260.58H184.27V23.66Z" fill="white"/>
<path d="M187.21 23.66H184.26V260.58H187.21V23.66Z" fill="white"/>
<path d="M190.16 23.66H187.21V260.58H190.16V23.66Z" fill="white"/>
<path d="M193.11 23.66H190.16V260.58H193.11V23.66Z" fill="white"/>
<path d="M196.06 23.66H193.11V260.58H196.06V23.66Z" fill="white"/>
<path d="M199 23.66H196.05V260.58H199V23.66Z" fill="white"/>
<path d="M201.95 23.66H199V260.58H201.95V23.66Z" fill="white"/>
<path d="M204.9 23.66H201.95V260.58H204.9V23.66Z" fill="white"/>
<path d="M207.84 23.66H204.89V260.58H207.84V23.66Z" fill="white"/>
<path d="M210.79 23.66H207.84V260.58H210.79V23.66Z" fill="white"/>
<path d="M213.74 23.66H210.79V260.58H213.74V23.66Z" fill="white"/>
<path d="M216.68 23.66H213.73V260.58H216.68V23.66Z" fill="white"/>
<path d="M219.63 23.66H216.68V260.58H219.63V23.66Z" fill="white"/>
<path d="M222.58 23.66H219.63V260.58H222.58V23.66Z" fill="white"/>
<path d="M225.52 23.66H222.57V260.58H225.52V23.66Z" fill="white"/>
<path d="M228.47 23.66H225.52V260.58H228.47V23.66Z" fill="white"/>
<path d="M231.42 23.66H228.47V260.58H231.42V23.66Z" fill="white"/>
<path d="M234.37 23.66H231.42V260.58H234.37V23.66Z" fill="white"/>
<path d="M237.31 23.66H234.36V260.58H237.31V23.66Z" fill="white"/>
<path d="M240.26 23.66H237.31V260.58H240.26V23.66Z" fill="white"/>
<path d="M243.21 23.66H240.26V260.58H243.21V23.66Z" fill="white"/>
<path d="M246.15 23.66H243.2V260.58H246.15V23.66Z" fill="white"/>
<path d="M249.1 23.66H246.15V260.58H249.1V23.66Z" fill="white"/>
<path d="M252.05 23.66H249.1V260.58H252.05V23.66Z" fill="white"/>
<path d="M253.29 23.66H252.04V260.58H253.29V23.66Z" fill="white"/>
<path d="M110.59 87.78H109V190.61H110.59V87.78Z" fill="white"/>
<path d="M113.54 87.78H110.59V190.61H113.54V87.78Z" fill="white"/>
<path d="M116.49 87.78H113.54V190.61H116.49V87.78Z" fill="white"/>
<path d="M119.43 87.78H116.48V190.61H119.43V87.78Z" fill="white"/>
<path d="M122.38 87.78H119.43V190.61H122.38V87.78Z" fill="white"/>
<path d="M125.33 87.78H122.38V190.61H125.33V87.78Z" fill="white"/>
<path d="M127.99 87.78H125.33V190.61H127.99V87.78Z" fill="white"/>
<path d="M199 87.78H196.34V190.61H199V87.78Z" fill="white"/>
<path d="M201.95 87.78H199V190.61H201.95V87.78Z" fill="white"/>
<path d="M204.9 87.78H201.95V190.61H204.9V87.78Z" fill="white"/>
<path d="M207.84 87.78H204.89V190.61H207.84V87.78Z" fill="white"/>
<path d="M210.79 87.78H207.84V190.61H210.79V87.78Z" fill="white"/>
<path d="M213.74 87.78H210.79V190.61H213.74V87.78Z" fill="white"/>
<path d="M215.32 87.78H213.73V190.61H215.32V87.78Z" fill="white"/>
<path d="M66.3899 16.0601H63.4399V268.18H66.3899V16.0601Z" fill="white"/>
<path d="M69.3401 16.0601H66.3901V268.18H69.3401V16.0601Z" fill="white"/>
<path d="M72.2801 16.0601H69.3301V268.18H72.2801V16.0601Z" fill="white"/>
<path d="M75.2298 16.0601H72.2798V268.18H75.2298V16.0601Z" fill="white"/>
<path d="M78.18 16.0601H75.23V268.18H78.18V16.0601Z" fill="white"/>
<path d="M81.1199 16.0601H78.1699V268.18H81.1199V16.0601Z" fill="white"/>
<path d="M84.0701 16.0601H81.1201V268.18H84.0701V16.0601Z" fill="white"/>
<path d="M87.0198 16.0601H84.0698V268.18H87.0198V16.0601Z" fill="white"/>
<path d="M89.97 16.0601H87.02V268.18H89.97V16.0601Z" fill="white"/>
<path d="M92.91 16.0601H89.96V268.18H92.91V16.0601Z" fill="white"/>
<path d="M95.8602 16.0601H92.9102V268.18H95.8602V16.0601Z" fill="white"/>
<path d="M98.8099 16.0601H95.8599V268.18H98.8099V16.0601Z" fill="white"/>
<path d="M101.75 16.0601H98.7998V268.18H101.75V16.0601Z" fill="white"/>
<path d="M104.7 16.0601H101.75V268.18H104.7V16.0601Z" fill="white"/>
<path d="M107.65 16.0601H104.7V268.18H107.65V16.0601Z" fill="white"/>
<path d="M110.59 16.0601H107.64V268.18H110.59V16.0601Z" fill="white"/>
<path d="M113.54 16.0601H110.59V268.18H113.54V16.0601Z" fill="white"/>
<path d="M116.49 16.0601H113.54V268.18H116.49V16.0601Z" fill="white"/>
<path d="M119.43 16.0601H116.48V268.18H119.43V16.0601Z" fill="white"/>
<path d="M122.38 16.0601H119.43V268.18H122.38V16.0601Z" fill="white"/>
<path d="M125.33 16.0601H122.38V268.18H125.33V16.0601Z" fill="white"/>
<path d="M128.28 16.0601H125.33V268.18H128.28V16.0601Z" fill="white"/>
<path d="M131.22 16.0601H128.27V268.18H131.22V16.0601Z" fill="white"/>
<path d="M134.17 16.0601H131.22V268.18H134.17V16.0601Z" fill="white"/>
<path d="M137.12 16.0601H134.17V268.18H137.12V16.0601Z" fill="white"/>
<path d="M140.06 16.0601H137.11V268.18H140.06V16.0601Z" fill="white"/>
<path d="M143.01 16.0601H140.06V268.18H143.01V16.0601Z" fill="white"/>
<path d="M145.96 16.0601H143.01V268.18H145.96V16.0601Z" fill="white"/>
<path d="M148.9 16.0601H145.95V268.18H148.9V16.0601Z" fill="white"/>
<path d="M151.85 16.0601H148.9V268.18H151.85V16.0601Z" fill="white"/>
<path d="M154.8 16.0601H151.85V268.18H154.8V16.0601Z" fill="white"/>
<path d="M157.74 16.0601H154.79V268.18H157.74V16.0601Z" fill="white"/>
<path d="M160.69 16.0601H157.74V268.18H160.69V16.0601Z" fill="white"/>
<path d="M163.64 16.0601H160.69V268.18H163.64V16.0601Z" fill="white"/>
<path d="M166.59 16.0601H163.64V268.18H166.59V16.0601Z" fill="white"/>
<path d="M169.53 16.0601H166.58V268.18H169.53V16.0601Z" fill="white"/>
<path d="M172.48 16.0601H169.53V268.18H172.48V16.0601Z" fill="white"/>
<path d="M175.43 16.0601H172.48V268.18H175.43V16.0601Z" fill="white"/>
<path d="M178.37 16.0601H175.42V268.18H178.37V16.0601Z" fill="white"/>
<path d="M181.32 16.0601H178.37V268.18H181.32V16.0601Z" fill="white"/>
<path d="M184.27 16.0601H181.32V268.18H184.27V16.0601Z" fill="white"/>
<path d="M187.21 16.0601H184.26V268.18H187.21V16.0601Z" fill="white"/>
<path d="M190.16 16.0601H187.21V268.18H190.16V16.0601Z" fill="white"/>
<path d="M193.11 16.0601H190.16V268.18H193.11V16.0601Z" fill="white"/>
<path d="M196.06 16.0601H193.11V268.18H196.06V16.0601Z" fill="white"/>
<path d="M199 16.0601H196.05V268.18H199V16.0601Z" fill="white"/>
<path d="M201.95 16.0601H199V268.18H201.95V16.0601Z" fill="white"/>
<path d="M204.9 16.0601H201.95V268.18H204.9V16.0601Z" fill="white"/>
<path d="M207.84 16.0601H204.89V268.18H207.84V16.0601Z" fill="white"/>
<path d="M210.79 16.0601H207.84V268.18H210.79V16.0601Z" fill="white"/>
<path d="M213.74 16.0601H210.79V268.18H213.74V16.0601Z" fill="white"/>
<path d="M216.68 16.0601H213.73V268.18H216.68V16.0601Z" fill="white"/>
<path d="M219.63 16.0601H216.68V268.18H219.63V16.0601Z" fill="white"/>
<path d="M222.58 16.0601H219.63V268.18H222.58V16.0601Z" fill="white"/>
<path d="M225.52 16.0601H222.57V268.18H225.52V16.0601Z" fill="white"/>
<path d="M228.47 16.0601H225.52V268.18H228.47V16.0601Z" fill="white"/>
<path d="M231.42 16.0601H228.47V268.18H231.42V16.0601Z" fill="white"/>
<path d="M234.37 16.0601H231.42V268.18H234.37V16.0601Z" fill="white"/>
<path d="M237.31 16.0601H234.36V268.18H237.31V16.0601Z" fill="white"/>
<path d="M240.26 16.0601H237.31V268.18H240.26V16.0601Z" fill="white"/>
<path d="M243.21 16.0601H240.26V268.18H243.21V16.0601Z" fill="white"/>
<path d="M246.15 16.0601H243.2V268.18H246.15V16.0601Z" fill="white"/>
<path d="M249.1 16.0601H246.15V268.18H249.1V16.0601Z" fill="white"/>
<path d="M252.05 16.0601H249.1V268.18H252.05V16.0601Z" fill="white"/>
<path d="M254.99 16.0601H252.04V268.18H254.99V16.0601Z" fill="white"/>
<path d="M257.94 16.0601H254.99V268.18H257.94V16.0601Z" fill="white"/>
<path d="M260.89 16.0601H257.94V268.18H260.89V16.0601Z" fill="white"/>
</g>
<path d="M169 53.28C168.22 52.28 165.88 49.11 162.16 49.11C158.45 49.11 156.1 52.25 155.33 53.27C150.64 59.52 143.18 77 143.18 85.93V131.49H150.77V89.73H173.55V131.49H181.15V85.93C181.15 76.08 174.86 61.1 169 53.28ZM151.24 82.13C152.79 74.56 157.88 62.52 161.4 57.83C161.63 57.5174 161.884 57.2232 162.16 56.95C162.436 57.2232 162.69 57.5174 162.92 57.83C167.991 65.1327 171.495 73.4065 173.21 82.13H151.24Z" fill="white"/>
<mask id="mask11_201_12" style="mask-type:luminance" maskUnits="userSpaceOnUse" x="143" y="49" width="39" height="83">
<path d="M169 53.28C168.22 52.28 165.88 49.11 162.16 49.11C158.45 49.11 156.1 52.25 155.33 53.27C150.64 59.52 143.18 77 143.18 85.93V131.49H150.77V89.73H173.55V131.49H181.15V85.93C181.15 76.08 174.86 61.1 169 53.28ZM151.24 82.13C152.79 74.56 157.88 62.52 161.4 57.83C161.63 57.5174 161.884 57.2232 162.16 56.95C162.436 57.2232 162.69 57.5174 162.92 57.83C167.991 65.1327 171.495 73.4065 173.21 82.13H151.24Z" fill="white"/>
</mask>
<g mask="url(#mask11_201_12)">
<path d="M151.68 56.95H151.24V82.1399H151.68V56.95Z" fill="white"/>
<path d="M152.25 56.95H151.68V82.1399H152.25V56.95Z" fill="white"/>
<path d="M152.81 56.95H152.24V82.1399H152.81V56.95Z" fill="white"/>
<path d="M153.38 56.95H152.81V82.1399H153.38V56.95Z" fill="white"/>
<path d="M153.95 56.95H153.38V82.1399H153.95V56.95Z" fill="white"/>
<path d="M154.51 56.95H153.94V82.1399H154.51V56.95Z" fill="white"/>
<path d="M155.08 56.95H154.51V82.1399H155.08V56.95Z" fill="white"/>
<path d="M155.65 56.95H155.08V82.1399H155.65V56.95Z" fill="white"/>
<path d="M156.21 56.95H155.64V82.1399H156.21V56.95Z" fill="white"/>
<path d="M156.78 56.95H156.21V82.1399H156.78V56.95Z" fill="white"/>
<path d="M157.35 56.95H156.78V82.1399H157.35V56.95Z" fill="white"/>
<path d="M157.92 56.95H157.35V82.1399H157.92V56.95Z" fill="white"/>
<path d="M158.48 56.95H157.91V82.1399H158.48V56.95Z" fill="white"/>
<path d="M159.05 56.95H158.48V82.1399H159.05V56.95Z" fill="white"/>
<path d="M159.62 56.95H159.05V82.1399H159.62V56.95Z" fill="white"/>
<path d="M160.18 56.95H159.61V82.1399H160.18V56.95Z" fill="white"/>
<path d="M160.75 56.95H160.18V82.1399H160.75V56.95Z" fill="white"/>
<path d="M161.32 56.95H160.75V82.1399H161.32V56.95Z" fill="white"/>
<path d="M161.88 56.95H161.31V82.1399H161.88V56.95Z" fill="white"/>
<path d="M162.45 56.95H161.88V82.1399H162.45V56.95Z" fill="white"/>
<path d="M163.02 56.95H162.45V82.1399H163.02V56.95Z" fill="white"/>
<path d="M163.58 56.95H163.01V82.1399H163.58V56.95Z" fill="white"/>
<path d="M164.15 56.95H163.58V82.1399H164.15V56.95Z" fill="white"/>
<path d="M164.72 56.95H164.15V82.1399H164.72V56.95Z" fill="white"/>
<path d="M165.28 56.95H164.71V82.1399H165.28V56.95Z" fill="white"/>
<path d="M165.85 56.95H165.28V82.1399H165.85V56.95Z" fill="white"/>
<path d="M166.42 56.95H165.85V82.1399H166.42V56.95Z" fill="white"/>
<path d="M166.98 56.95H166.41V82.1399H166.98V56.95Z" fill="white"/>
<path d="M167.55 56.95H166.98V82.1399H167.55V56.95Z" fill="white"/>
<path d="M168.12 56.95H167.55V82.1399H168.12V56.95Z" fill="white"/>
<path d="M168.68 56.95H168.11V82.1399H168.68V56.95Z" fill="white"/>
<path d="M169.25 56.95H168.68V82.1399H169.25V56.95Z" fill="white"/>
<path d="M169.82 56.95H169.25V82.1399H169.82V56.95Z" fill="white"/>
<path d="M170.38 56.95H169.81V82.1399H170.38V56.95Z" fill="white"/>
<path d="M170.95 56.95H170.38V82.1399H170.95V56.95Z" fill="white"/>
<path d="M171.52 56.95H170.95V82.1399H171.52V56.95Z" fill="white"/>
<path d="M172.08 56.95H171.51V82.1399H172.08V56.95Z" fill="white"/>
<path d="M172.65 56.95H172.08V82.1399H172.65V56.95Z" fill="white"/>
<path d="M173.22 56.95H172.65V82.1399H173.22V56.95Z" fill="white"/>
<path d="M143.75 49.11H143.18V131.49H143.75V49.11Z" fill="white"/>
<path d="M144.31 49.11H143.74V131.49H144.31V49.11Z" fill="white"/>
<path d="M144.88 49.11H144.31V131.49H144.88V49.11Z" fill="white"/>
<path d="M145.45 49.11H144.88V131.49H145.45V49.11Z" fill="white"/>
<path d="M146.01 49.11H145.44V131.49H146.01V49.11Z" fill="white"/>
<path d="M146.58 49.11H146.01V131.49H146.58V49.11Z" fill="white"/>
<path d="M147.15 49.11H146.58V131.49H147.15V49.11Z" fill="white"/>
<path d="M147.71 49.11H147.14V131.49H147.71V49.11Z" fill="white"/>
<path d="M148.28 49.11H147.71V131.49H148.28V49.11Z" fill="white"/>
<path d="M148.85 49.11H148.28V131.49H148.85V49.11Z" fill="white"/>
<path d="M149.41 49.11H148.84V131.49H149.41V49.11Z" fill="white"/>
<path d="M149.98 49.11H149.41V131.49H149.98V49.11Z" fill="white"/>
<path d="M150.55 49.11H149.98V131.49H150.55V49.11Z" fill="white"/>
<path d="M151.11 49.11H150.54V131.49H151.11V49.11Z" fill="white"/>
<path d="M151.68 49.11H151.11V131.49H151.68V49.11Z" fill="white"/>
<path d="M152.25 49.11H151.68V131.49H152.25V49.11Z" fill="white"/>
<path d="M152.81 49.11H152.24V131.49H152.81V49.11Z" fill="white"/>
<path d="M153.38 49.11H152.81V131.49H153.38V49.11Z" fill="white"/>
<path d="M153.95 49.11H153.38V131.49H153.95V49.11Z" fill="white"/>
<path d="M154.51 49.11H153.94V131.49H154.51V49.11Z" fill="white"/>
<path d="M155.08 49.11H154.51V131.49H155.08V49.11Z" fill="white"/>
<path d="M155.65 49.11H155.08V131.49H155.65V49.11Z" fill="white"/>
<path d="M156.21 49.11H155.64V131.49H156.21V49.11Z" fill="white"/>
<path d="M156.78 49.11H156.21V131.49H156.78V49.11Z" fill="white"/>
<path d="M157.35 49.11H156.78V131.49H157.35V49.11Z" fill="white"/>
<path d="M157.92 49.11H157.35V131.49H157.92V49.11Z" fill="white"/>
<path d="M158.48 49.11H157.91V131.49H158.48V49.11Z" fill="white"/>
<path d="M159.05 49.11H158.48V131.49H159.05V49.11Z" fill="white"/>
<path d="M159.62 49.11H159.05V131.49H159.62V49.11Z" fill="white"/>
<path d="M160.18 49.11H159.61V131.49H160.18V49.11Z" fill="white"/>
<path d="M160.75 49.11H160.18V131.49H160.75V49.11Z" fill="white"/>
<path d="M161.32 49.11H160.75V131.49H161.32V49.11Z" fill="white"/>
<path d="M161.88 49.11H161.31V131.49H161.88V49.11Z" fill="white"/>
<path d="M162.45 49.11H161.88V131.49H162.45V49.11Z" fill="white"/>
<path d="M163.02 49.11H162.45V131.49H163.02V49.11Z" fill="white"/>
<path d="M163.58 49.11H163.01V131.49H163.58V49.11Z" fill="white"/>
<path d="M164.15 49.11H163.58V131.49H164.15V49.11Z" fill="white"/>
<path d="M164.72 49.11H164.15V131.49H164.72V49.11Z" fill="white"/>
<path d="M165.28 49.11H164.71V131.49H165.28V49.11Z" fill="white"/>
<path d="M165.85 49.11H165.28V131.49H165.85V49.11Z" fill="white"/>
<path d="M166.42 49.11H165.85V131.49H166.42V49.11Z" fill="white"/>
<path d="M166.98 49.11H166.41V131.49H166.98V49.11Z" fill="white"/>
<path d="M167.55 49.11H166.98V131.49H167.55V49.11Z" fill="white"/>
<path d="M168.12 49.11H167.55V131.49H168.12V49.11Z" fill="white"/>
<path d="M168.68 49.11H168.11V131.49H168.68V49.11Z" fill="white"/>
<path d="M169.25 49.11H168.68V131.49H169.25V49.11Z" fill="white"/>
<path d="M169.82 49.11H169.25V131.49H169.82V49.11Z" fill="white"/>
<path d="M170.38 49.11H169.81V131.49H170.38V49.11Z" fill="white"/>
<path d="M170.95 49.11H170.38V131.49H170.95V49.11Z" fill="white"/>
<path d="M171.52 49.11H170.95V131.49H171.52V49.11Z" fill="white"/>
<path d="M172.08 49.11H171.51V131.49H172.08V49.11Z" fill="white"/>
<path d="M172.65 49.11H172.08V131.49H172.65V49.11Z" fill="white"/>
<path d="M173.22 49.11H172.65V131.49H173.22V49.11Z" fill="white"/>
<path d="M173.78 49.11H173.21V131.49H173.78V49.11Z" fill="white"/>
<path d="M174.35 49.11H173.78V131.49H174.35V49.11Z" fill="white"/>
<path d="M174.92 49.11H174.35V131.49H174.92V49.11Z" fill="white"/>
<path d="M175.48 49.11H174.91V131.49H175.48V49.11Z" fill="white"/>
<path d="M176.05 49.11H175.48V131.49H176.05V49.11Z" fill="white"/>
<path d="M176.62 49.11H176.05V131.49H176.62V49.11Z" fill="white"/>
<path d="M177.18 49.11H176.61V131.49H177.18V49.11Z" fill="white"/>
<path d="M177.75 49.11H177.18V131.49H177.75V49.11Z" fill="white"/>
<path d="M178.32 49.11H177.75V131.49H178.32V49.11Z" fill="white"/>
<path d="M178.88 49.11H178.31V131.49H178.88V49.11Z" fill="white"/>
<path d="M179.45 49.11H178.88V131.49H179.45V49.11Z" fill="white"/>
<path d="M180.02 49.11H179.45V131.49H180.02V49.11Z" fill="white"/>
<path d="M180.58 49.11H180.01V131.49H180.58V49.11Z" fill="white"/>
<path d="M181.15 49.11H180.58V131.49H181.15V49.11Z" fill="white"/>
</g>
</svg>
