<svg width="325" height="356" fill="none" xmlns="http://www.w3.org/2000/svg"><path d="M163.46 10.57c-25.51 0-39.28 82.23-39.28 159.63 0 39.92 3.67 81.14 10.7 111.71.6 2.62 1.23 5.12 1.87 7.55a148.181 148.181 0 006.47 19.34 72.793 72.793 0 004.71 9.32c4.57 7.44 9.73 11.67 15.53 11.67 5.8 0 11.07-4.3 15.64-11.9a69.79 69.79 0 005.31-10.81 148.36 148.36 0 005.83-18c.68-2.43 1.28-5 1.88-7.6 7-30.52 10.62-71.56 10.62-111.29 0-77.39-13.74-159.62-39.28-159.62zm22 267a172.965 172.965 0 01-8.56 28.92c-4.34 10.21-9 15.79-13.47 15.79-4.27 0-8.64-5-12.76-14.18-3.33-7.44-6.47-17.62-9.2-30.15-5.84-26.67-9.84-64-9.84-107.78 0-89.67 16.76-152.14 31.8-152.14s31.8 62.47 31.8 152.14c.03 43.61-3.94 80.83-9.74 107.43l-.03-.03z" fill="#84D9BC"/><path d="M17.35 236.4v-49.64l104.83-61.85 10-3.78V200L17.35 236.4zm7.49-45.4v35.15l99.87-31.7v-62.4L24.84 191zm284.53 45.42L194.53 200v-78.85l10.59 4.06 104.25 61.57v49.64zM202 194.5l99.87 31.7v-35.15l-99.87-59v62.45zM141.5 278l-6.62 3.93-44.71 26.31v28.21l57.76-18.33 2.77-.9v-9.09c-3.33-7.44-6.47-17.62-9.2-30.13zm1.72 33.78L97.66 326.2v-13.69l39.09-23.05 6.47-3.81v26.13zm48.9-30.29l-6.63-3.89a172.965 172.965 0 01-8.56 28.92v10.7l2.17.67 58.32 18.56v-28.21l-45.3-26.75zm37.82 44.71l-45.53-14.44v-26.11l5.83 3.44 39.7 23.42v13.69zM163.45 87.61a14.915 14.915 0 01-13.776-9.207 14.913 14.913 0 013.237-16.25 14.906 14.906 0 0116.252-3.225 14.91 14.91 0 019.197 13.782 14.92 14.92 0 01-14.91 14.9zm0-26.07a11.172 11.172 0 00-10.32 6.896 11.173 11.173 0 008.141 15.23 11.17 11.17 0 102.179-22.126zm0 67.9a12.902 12.902 0 01-9.122-22.022 12.903 12.903 0 0119.848 1.955 12.904 12.904 0 012.174 7.167 12.916 12.916 0 01-3.781 9.119 12.916 12.916 0 01-9.119 3.781zm0-22a9.158 9.158 0 00-8.983 10.951 9.16 9.16 0 0018.143-1.801 9.168 9.168 0 00-2.669-6.503 9.16 9.16 0 00-6.491-2.697v.05zm0 61.66a12.9 12.9 0 110-25.8 12.9 12.9 0 010 25.8zm0-22a9.155 9.155 0 00-8.463 5.655 9.156 9.156 0 001.986 9.982 9.156 9.156 0 009.982 1.986 9.164 9.164 0 005.655-8.463 9.146 9.146 0 00-2.665-6.509 9.17 9.17 0 00-6.495-2.701v.05zm0 58.08a12.9 12.9 0 110-25.8 12.9 12.9 0 010 25.8zm0-22.05a9.155 9.155 0 00-8.463 5.655 9.156 9.156 0 001.986 9.982 9.164 9.164 0 009.982 1.986 9.164 9.164 0 005.655-8.463 9.16 9.16 0 00-9.16-9.16z" fill="#84D9BC"/></svg>