<svg width="325" height="356" fill="none" xmlns="http://www.w3.org/2000/svg"><path d="M177.35 85.93c0-8.94-6-23.22-11.39-30.38-2.64-3.52-5-3.52-7.59 0-4.55 6.06-11.4 22.8-11.4 30.38h30.38z" fill="#fff"/><mask id="a" style="mask-type:luminance" maskUnits="userSpaceOnUse" x="146" y="52" width="32" height="34"><path d="M177.35 85.93c0-8.94-6-23.22-11.39-30.38-2.64-3.52-5-3.52-7.59 0-4.55 6.06-11.4 22.8-11.4 30.38h30.38z" fill="#fff"/></mask><g mask="url(#a)" fill="#fff"><path d="M147.42 52.03h-.45v33.9h.45v-33.9zm.46 0h-.45v33.9h.45v-33.9zm.45 0h-.45v33.9h.45v-33.9zm.45 0h-.45v33.9h.45v-33.9zm.46 0h-.45v33.9h.45v-33.9zm.45 0h-.45v33.9h.45v-33.9zm.45 0h-.45v33.9h.45v-33.9zm.46 0h-.45v33.9h.45v-33.9zm.45 0h-.45v33.9h.45v-33.9zm.45 0h-.45v33.9h.45v-33.9zm.46 0h-.45v33.9h.45v-33.9zm.45 0h-.45v33.9h.45v-33.9zm.46 0h-.45v33.9h.45v-33.9zm.45 0h-.45v33.9h.45v-33.9zm.45 0h-.45v33.9h.45v-33.9zm.46 0h-.45v33.9h.45v-33.9zm.45 0h-.45v33.9h.45v-33.9zm.45 0h-.45v33.9h.45v-33.9zm.46 0h-.45v33.9h.45v-33.9zm.45 0h-.45v33.9h.45v-33.9zm.45 0h-.45v33.9h.45v-33.9zm.46 0h-.45v33.9h.45v-33.9zm.45 0h-.45v33.9h.45v-33.9zm.45 0h-.45v33.9h.45v-33.9zm.46 0h-.45v33.9h.45v-33.9zm.45 0h-.45v33.9h.45v-33.9zm.45 0h-.45v33.9h.45v-33.9zm.46 0h-.45v33.9h.45v-33.9zm.45 0h-.45v33.9h.45v-33.9zm.45 0h-.45v33.9h.45v-33.9zm.46 0h-.45v33.9h.45v-33.9zm.45 0h-.45v33.9h.45v-33.9zm.45 0h-.45v33.9h.45v-33.9zm.46 0h-.45v33.9h.45v-33.9zm.45 0h-.45v33.9h.45v-33.9zm.45 0h-.45v33.9h.45v-33.9zm.46 0h-.45v33.9h.45v-33.9zm.45 0h-.45v33.9h.45v-33.9zm.45 0h-.45v33.9h.45v-33.9zm.46 0h-.45v33.9h.45v-33.9zm.45 0h-.45v33.9h.45v-33.9zm.45 0h-.45v33.9h.45v-33.9zm.46 0h-.45v33.9h.45v-33.9zm.45 0h-.45v33.9h.45v-33.9zm.45 0h-.45v33.9h.45v-33.9zm.46 0h-.45v33.9h.45v-33.9zm.45 0h-.45v33.9h.45v-33.9zm.45 0h-.45v33.9h.45v-33.9zm.46 0h-.45v33.9h.45v-33.9zm.45 0h-.45v33.9h.45v-33.9zm.45 0h-.45v33.9h.45v-33.9zm.46 0h-.45v33.9h.45v-33.9zm.45 0h-.45v33.9h.45v-33.9zm.45 0H171v33.9h.45v-33.9zm.46 0h-.45v33.9h.45v-33.9zm.45 0h-.45v33.9h.45v-33.9zm.45 0h-.45v33.9h.45v-33.9zm.46 0h-.45v33.9h.45v-33.9zm.45 0h-.45v33.9h.45v-33.9zm.45 0h-.45v33.9h.45v-33.9zm.46 0h-.45v33.9h.45v-33.9zm.45 0h-.45v33.9h.45v-33.9zm.45 0h-.45v33.9h.45v-33.9zm.46 0h-.45v33.9h.45v-33.9zm.45 0h-.45v33.9h.45v-33.9zm.45 0h-.45v33.9h.45v-33.9zm.46 0h-.45v33.9h.45v-33.9z"/></g><path d="M165.96 342.61h-7.59v7.59h7.59v-7.59z" fill="#fff"/><mask id="b" style="mask-type:luminance" maskUnits="userSpaceOnUse" x="158" y="342" width="8" height="9"><path d="M165.96 342.61h-7.59v7.59h7.59v-7.59z" fill="#fff"/></mask><g mask="url(#b)" fill="#fff"><path d="M158.48 342.61h-.11v7.59h.11v-7.59zm.11 0h-.11v7.59h.11v-7.59z"/><path d="M158.7 342.61h-.11v7.59h.11v-7.59zm.12 0h-.11v7.59h.11v-7.59zm.11 0h-.11v7.59h.11v-7.59z"/><path d="M159.04 342.61h-.11v7.59h.11v-7.59zm.12 0h-.11v7.59h.11v-7.59zm.11 0h-.11v7.59h.11v-7.59z"/><path d="M159.38 342.61h-.11v7.59h.11v-7.59zm.12 0h-.11v7.59h.11v-7.59zm.11 0h-.11v7.59h.11v-7.59z"/><path d="M159.72 342.61h-.11v7.59h.11v-7.59zm.12 0h-.11v7.59h.11v-7.59z"/><path d="M159.95 342.61h-.11v7.59h.11v-7.59zm.11 0h-.11v7.59h.11v-7.59zm.12 0h-.11v7.59h.11v-7.59z"/><path d="M160.29 342.61h-.11v7.59h.11v-7.59zm.11 0h-.11v7.59h.11v-7.59zm.12 0h-.11v7.59h.11v-7.59z"/><path d="M160.63 342.61h-.11v7.59h.11v-7.59zm.11 0h-.11v7.59h.11v-7.59zm.12 0h-.11v7.59h.11v-7.59z"/><path d="M160.97 342.61h-.11v7.59h.11v-7.59zm.11 0h-.11v7.59h.11v-7.59zm.12 0h-.11v7.59h.11v-7.59zm.11 0h-.11v7.59h.11v-7.59z"/><path d="M161.42 342.61h-.11v7.59h.11v-7.59zm.12 0h-.11v7.59h.11v-7.59zm.11 0h-.11v7.59h.11v-7.59z"/><path d="M161.76 342.61h-.11v7.59h.11v-7.59zm.12 0h-.11v7.59h.11v-7.59zm.11 0h-.11v7.59h.11v-7.59z"/><path d="M162.1 342.61h-.11v7.59h.11v-7.59zm.12 0h-.11v7.59h.11v-7.59zm.11 0h-.11v7.59h.11v-7.59z"/><path d="M162.44 342.61h-.11v7.59h.11v-7.59zm.12 0h-.11v7.59h.11v-7.59z"/><path d="M162.67 342.61h-.11v7.59h.11v-7.59zm.11 0h-.11v7.59h.11v-7.59zm.12 0h-.11v7.59h.11v-7.59z"/><path d="M163.01 342.61h-.11v7.59h.11v-7.59zm.11 0h-.11v7.59h.11v-7.59zm.12 0h-.11v7.59h.11v-7.59z"/><path d="M163.35 342.61h-.11v7.59h.11v-7.59zm.11 0h-.11v7.59h.11v-7.59zm.12 0h-.11v7.59h.11v-7.59z"/><path d="M163.69 342.61h-.11v7.59h.11v-7.59zm.11 0h-.11v7.59h.11v-7.59zm.12 0h-.11v7.59h.11v-7.59zm.11 0h-.11v7.59h.11v-7.59z"/><path d="M164.14 342.61h-.11v7.59h.11v-7.59zm.12 0h-.11v7.59h.11v-7.59zm.11 0h-.11v7.59h.11v-7.59z"/><path d="M164.48 342.61h-.11v7.59h.11v-7.59zm.12 0h-.11v7.59h.11v-7.59zm.11 0h-.11v7.59h.11v-7.59z"/><path d="M164.82 342.61h-.11v7.59h.11v-7.59zm.12 0h-.11v7.59h.11v-7.59zm.11 0h-.11v7.59h.11v-7.59z"/><path d="M165.16 342.61h-.11v7.59h.11v-7.59zm.12 0h-.11v7.59h.11v-7.59z"/><path d="M165.39 342.61h-.11v7.59h.11v-7.59zm.11 0h-.11v7.59h.11v-7.59zm.12 0h-.11v7.59h.11v-7.59z"/><path d="M165.73 342.61h-.11v7.59h.11v-7.59zm.11 0h-.11v7.59h.11v-7.59zm.12 0h-.11v7.59h.11v-7.59z"/></g><path d="M165.96 302.36h-7.59v32.65h7.59v-32.65z" fill="#fff"/><mask id="c" style="mask-type:luminance" maskUnits="userSpaceOnUse" x="158" y="302" width="8" height="34"><path d="M165.96 302.36h-7.59v32.65h7.59v-32.65z" fill="#fff"/></mask><g mask="url(#c)" fill="#fff"><path d="M158.48 302.36h-.11v32.65h.11v-32.65zm.11 0h-.11v32.65h.11v-32.65z"/><path d="M158.7 302.36h-.11v32.65h.11v-32.65zm.12 0h-.11v32.65h.11v-32.65zm.11 0h-.11v32.65h.11v-32.65z"/><path d="M159.04 302.36h-.11v32.65h.11v-32.65zm.12 0h-.11v32.65h.11v-32.65zm.11 0h-.11v32.65h.11v-32.65z"/><path d="M159.38 302.36h-.11v32.65h.11v-32.65zm.12 0h-.11v32.65h.11v-32.65zm.11 0h-.11v32.65h.11v-32.65z"/><path d="M159.72 302.36h-.11v32.65h.11v-32.65zm.12 0h-.11v32.65h.11v-32.65z"/><path d="M159.95 302.36h-.11v32.65h.11v-32.65zm.11 0h-.11v32.65h.11v-32.65zm.12 0h-.11v32.65h.11v-32.65z"/><path d="M160.29 302.36h-.11v32.65h.11v-32.65zm.11 0h-.11v32.65h.11v-32.65zm.12 0h-.11v32.65h.11v-32.65z"/><path d="M160.63 302.36h-.11v32.65h.11v-32.65zm.11 0h-.11v32.65h.11v-32.65zm.12 0h-.11v32.65h.11v-32.65z"/><path d="M160.97 302.36h-.11v32.65h.11v-32.65zm.11 0h-.11v32.65h.11v-32.65zm.12 0h-.11v32.65h.11v-32.65zm.11 0h-.11v32.65h.11v-32.65z"/><path d="M161.42 302.36h-.11v32.65h.11v-32.65zm.12 0h-.11v32.65h.11v-32.65zm.11 0h-.11v32.65h.11v-32.65z"/><path d="M161.76 302.36h-.11v32.65h.11v-32.65zm.12 0h-.11v32.65h.11v-32.65zm.11 0h-.11v32.65h.11v-32.65z"/><path d="M162.1 302.36h-.11v32.65h.11v-32.65zm.12 0h-.11v32.65h.11v-32.65zm.11 0h-.11v32.65h.11v-32.65z"/><path d="M162.44 302.36h-.11v32.65h.11v-32.65zm.12 0h-.11v32.65h.11v-32.65z"/><path d="M162.67 302.36h-.11v32.65h.11v-32.65zm.11 0h-.11v32.65h.11v-32.65zm.12 0h-.11v32.65h.11v-32.65z"/><path d="M163.01 302.36h-.11v32.65h.11v-32.65zm.11 0h-.11v32.65h.11v-32.65zm.12 0h-.11v32.65h.11v-32.65z"/><path d="M163.35 302.36h-.11v32.65h.11v-32.65zm.11 0h-.11v32.65h.11v-32.65zm.12 0h-.11v32.65h.11v-32.65z"/><path d="M163.69 302.36h-.11v32.65h.11v-32.65zm.11 0h-.11v32.65h.11v-32.65zm.12 0h-.11v32.65h.11v-32.65zm.11 0h-.11v32.65h.11v-32.65z"/><path d="M164.14 302.36h-.11v32.65h.11v-32.65zm.12 0h-.11v32.65h.11v-32.65zm.11 0h-.11v32.65h.11v-32.65z"/><path d="M164.48 302.36h-.11v32.65h.11v-32.65zm.12 0h-.11v32.65h.11v-32.65zm.11 0h-.11v32.65h.11v-32.65z"/><path d="M164.82 302.36h-.11v32.65h.11v-32.65zm.12 0h-.11v32.65h.11v-32.65zm.11 0h-.11v32.65h.11v-32.65z"/><path d="M165.16 302.36h-.11v32.65h.11v-32.65zm.12 0h-.11v32.65h.11v-32.65z"/><path d="M165.39 302.36h-.11v32.65h.11v-32.65zm.11 0h-.11v32.65h.11v-32.65zm.12 0h-.11v32.65h.11v-32.65z"/><path d="M165.73 302.36h-.11v32.65h.11v-32.65zm.11 0h-.11v32.65h.11v-32.65zm.12 0h-.11v32.65h.11v-32.65z"/></g><path d="M184.94 294.77h-7.59v44.05h7.59v-44.05z" fill="#fff"/><mask id="d" style="mask-type:luminance" maskUnits="userSpaceOnUse" x="177" y="294" width="8" height="45"><path d="M184.94 294.77h-7.59v44.05h7.59v-44.05z" fill="#fff"/></mask><g mask="url(#d)" fill="#fff"><path d="M177.46 294.77h-.11v44.05h.11v-44.05z"/><path d="M177.57 294.77h-.11v44.05h.11v-44.05zm.12 0h-.11v44.05h.11v-44.05zm.11 0h-.11v44.05h.11v-44.05z"/><path d="M177.91 294.77h-.11v44.05h.11v-44.05zm.12 0h-.11v44.05h.11v-44.05z"/><path d="M178.14 294.77h-.11v44.05h.11v-44.05zm.11 0h-.11v44.05h.11v-44.05zm.12 0h-.11v44.05h.11v-44.05z"/><path d="M178.48 294.77h-.11v44.05h.11v-44.05zm.11 0h-.11v44.05h.11v-44.05zm.12 0h-.11v44.05h.11v-44.05z"/><path d="M178.82 294.77h-.11v44.05h.11v-44.05zm.11 0h-.11v44.05h.11v-44.05zm.12 0h-.11v44.05h.11v-44.05z"/><path d="M179.16 294.77h-.11v44.05h.11v-44.05zm.11 0h-.11v44.05h.11v-44.05zm.12 0h-.11v44.05h.11v-44.05zm.11 0h-.11v44.05h.11v-44.05zm.11 0h-.11v44.05h.11v-44.05zm.12 0h-.11v44.05h.11v-44.05zm.11 0h-.11v44.05h.11v-44.05z"/><path d="M179.95 294.77h-.11v44.05h.11v-44.05zm.12 0h-.11v44.05h.11v-44.05zm.11 0h-.11v44.05h.11v-44.05z"/><path d="M180.29 294.77h-.11v44.05h.11v-44.05zm.12 0h-.11v44.05h.11v-44.05zm.11 0h-.11v44.05h.11v-44.05z"/><path d="M180.63 294.77h-.11v44.05h.11v-44.05zm.12 0h-.11v44.05h.11v-44.05zm.11 0h-.11v44.05h.11v-44.05z"/><path d="M180.97 294.77h-.11v44.05h.11v-44.05zm.12 0h-.11v44.05h.11v-44.05z"/><path d="M181.2 294.77h-.11v44.05h.11v-44.05zm.11 0h-.11v44.05h.11v-44.05zm.12 0h-.11v44.05h.11v-44.05z"/><path d="M181.54 294.77h-.11v44.05h.11v-44.05zm.11 0h-.11v44.05h.11v-44.05zm.12 0h-.11v44.05h.11v-44.05z"/><path d="M181.88 294.77h-.11v44.05h.11v-44.05zm.11 0h-.11v44.05h.11v-44.05zm.12 0H182v44.05h.11v-44.05z"/><path d="M182.22 294.77h-.11v44.05h.11v-44.05zm.11 0h-.11v44.05h.11v-44.05zm.12 0h-.11v44.05h.11v-44.05zm.11 0h-.11v44.05h.11v-44.05z"/><path d="M182.67 294.77h-.11v44.05h.11v-44.05zm.12 0h-.11v44.05h.11v-44.05zm.11 0h-.11v44.05h.11v-44.05z"/><path d="M183.01 294.77h-.11v44.05h.11v-44.05zm.12 0h-.11v44.05h.11v-44.05zm.11 0h-.11v44.05h.11v-44.05z"/><path d="M183.35 294.77h-.11v44.05h.11v-44.05zm.12 0h-.11v44.05h.11v-44.05zm.11 0h-.11v44.05h.11v-44.05z"/><path d="M183.69 294.77h-.11v44.05h.11v-44.05zm.12 0h-.11v44.05h.11v-44.05z"/><path d="M183.92 294.77h-.11v44.05h.11v-44.05zm.11 0h-.11v44.05h.11v-44.05zm.12 0h-.11v44.05h.11v-44.05z"/><path d="M184.26 294.77h-.11v44.05h.11v-44.05zm.11 0h-.11v44.05h.11v-44.05zm.12 0h-.11v44.05h.11v-44.05z"/><path d="M184.6 294.77h-.11v44.05h.11v-44.05zm.11 0h-.11v44.05h.11v-44.05zm.12 0h-.11v44.05h.11v-44.05z"/><path d="M184.94 294.77h-.11v44.05h.11v-44.05z"/></g><path d="M207.72 323.62h-7.59v7.59h7.59v-7.59z" fill="#fff"/><mask id="e" style="mask-type:luminance" maskUnits="userSpaceOnUse" x="200" y="323" width="8" height="9"><path d="M207.72 323.62h-7.59v7.59h7.59v-7.59z" fill="#fff"/></mask><g mask="url(#e)" fill="#fff"><path d="M200.24 323.62h-.11v7.59h.11v-7.59zm.12 0h-.11v7.59h.11v-7.59z"/><path d="M200.47 323.62h-.11v7.59h.11v-7.59zm.11 0h-.11v7.59h.11v-7.59zm.12 0h-.11v7.59h.11v-7.59zm.11 0h-.11v7.59h.11v-7.59z"/><path d="M200.92 323.62h-.11v7.59h.11v-7.59zm.12 0h-.11v7.59h.11v-7.59zm.11 0h-.11v7.59h.11v-7.59z"/><path d="M201.26 323.62h-.11v7.59h.11v-7.59zm.12 0h-.11v7.59h.11v-7.59zm.11 0h-.11v7.59h.11v-7.59z"/><path d="M201.6 323.62h-.11v7.59h.11v-7.59zm.12 0h-.11v7.59h.11v-7.59zm.11 0h-.11v7.59h.11v-7.59z"/><path d="M201.94 323.62h-.11v7.59h.11v-7.59zm.12 0h-.11v7.59h.11v-7.59z"/><path d="M202.17 323.62h-.11v7.59h.11v-7.59zm.11 0h-.11v7.59h.11v-7.59zm.12 0h-.11v7.59h.11v-7.59z"/><path d="M202.51 323.62h-.11v7.59h.11v-7.59zm.11 0h-.11v7.59h.11v-7.59zm.12 0h-.11v7.59h.11v-7.59z"/><path d="M202.85 323.62h-.11v7.59h.11v-7.59zm.11 0h-.11v7.59h.11v-7.59zm.12 0h-.11v7.59h.11v-7.59z"/><path d="M203.19 323.62h-.11v7.59h.11v-7.59zm.11 0h-.11v7.59h.11v-7.59zm.12 0h-.11v7.59h.11v-7.59zm.11 0h-.11v7.59h.11v-7.59z"/><path d="M203.64 323.62h-.11v7.59h.11v-7.59zm.12 0h-.11v7.59h.11v-7.59zm.11 0h-.11v7.59h.11v-7.59z"/><path d="M203.98 323.62h-.11v7.59h.11v-7.59zm.12 0h-.11v7.59h.11v-7.59zm.11 0h-.11v7.59h.11v-7.59z"/><path d="M204.32 323.62h-.11v7.59h.11v-7.59zm.12 0h-.11v7.59h.11v-7.59zm.11 0h-.11v7.59h.11v-7.59z"/><path d="M204.66 323.62h-.11v7.59h.11v-7.59zm.12 0h-.11v7.59h.11v-7.59z"/><path d="M204.89 323.62h-.11v7.59h.11v-7.59zm.11 0h-.11v7.59h.11v-7.59zm.12 0h-.11v7.59h.11v-7.59z"/><path d="M205.23 323.62h-.11v7.59h.11v-7.59zm.11 0h-.11v7.59h.11v-7.59zm.12 0h-.11v7.59h.11v-7.59z"/><path d="M205.57 323.62h-.11v7.59h.11v-7.59zm.11 0h-.11v7.59h.11v-7.59zm.12 0h-.11v7.59h.11v-7.59z"/><path d="M205.91 323.62h-.11v7.59h.11v-7.59zm.11 0h-.11v7.59h.11v-7.59zm.12 0h-.11v7.59h.11v-7.59zm.11 0h-.11v7.59h.11v-7.59zm.11 0h-.11v7.59h.11v-7.59zm.12 0h-.11v7.59h.11v-7.59zm.11 0h-.11v7.59h.11v-7.59z"/><path d="M206.7 323.62h-.11v7.59h.11v-7.59zm.12 0h-.11v7.59h.11v-7.59zm.11 0h-.11v7.59h.11v-7.59z"/><path d="M207.04 323.62h-.11v7.59h.11v-7.59zm.12 0h-.11v7.59h.11v-7.59zm.11 0h-.11v7.59h.11v-7.59z"/><path d="M207.38 323.62h-.11v7.59h.11v-7.59zm.12 0h-.11v7.59h.11v-7.59zm.11 0h-.11v7.59h.11v-7.59z"/><path d="M207.72 323.62h-.11v7.59h.11v-7.59z"/></g><path d="M207.72 287.17h-7.59v28.86h7.59v-28.86z" fill="#fff"/><mask id="f" style="mask-type:luminance" maskUnits="userSpaceOnUse" x="200" y="287" width="8" height="30"><path d="M207.72 287.17h-7.59v28.86h7.59v-28.86z" fill="#fff"/></mask><g mask="url(#f)" fill="#fff"><path d="M200.24 287.17h-.11v28.86h.11v-28.86zm.12 0h-.11v28.86h.11v-28.86z"/><path d="M200.47 287.17h-.11v28.86h.11v-28.86zm.11 0h-.11v28.86h.11v-28.86zm.12 0h-.11v28.86h.11v-28.86zm.11 0h-.11v28.86h.11v-28.86z"/><path d="M200.92 287.17h-.11v28.86h.11v-28.86zm.12 0h-.11v28.86h.11v-28.86zm.11 0h-.11v28.86h.11v-28.86z"/><path d="M201.26 287.17h-.11v28.86h.11v-28.86zm.12 0h-.11v28.86h.11v-28.86zm.11 0h-.11v28.86h.11v-28.86z"/><path d="M201.6 287.17h-.11v28.86h.11v-28.86zm.12 0h-.11v28.86h.11v-28.86zm.11 0h-.11v28.86h.11v-28.86z"/><path d="M201.94 287.17h-.11v28.86h.11v-28.86zm.12 0h-.11v28.86h.11v-28.86z"/><path d="M202.17 287.17h-.11v28.86h.11v-28.86zm.11 0h-.11v28.86h.11v-28.86zm.12 0h-.11v28.86h.11v-28.86z"/><path d="M202.51 287.17h-.11v28.86h.11v-28.86zm.11 0h-.11v28.86h.11v-28.86zm.12 0h-.11v28.86h.11v-28.86z"/><path d="M202.85 287.17h-.11v28.86h.11v-28.86zm.11 0h-.11v28.86h.11v-28.86zm.12 0h-.11v28.86h.11v-28.86z"/><path d="M203.19 287.17h-.11v28.86h.11v-28.86zm.11 0h-.11v28.86h.11v-28.86zm.12 0h-.11v28.86h.11v-28.86zm.11 0h-.11v28.86h.11v-28.86z"/><path d="M203.64 287.17h-.11v28.86h.11v-28.86zm.12 0h-.11v28.86h.11v-28.86zm.11 0h-.11v28.86h.11v-28.86z"/><path d="M203.98 287.17h-.11v28.86h.11v-28.86zm.12 0h-.11v28.86h.11v-28.86zm.11 0h-.11v28.86h.11v-28.86z"/><path d="M204.32 287.17h-.11v28.86h.11v-28.86zm.12 0h-.11v28.86h.11v-28.86zm.11 0h-.11v28.86h.11v-28.86z"/><path d="M204.66 287.17h-.11v28.86h.11v-28.86zm.12 0h-.11v28.86h.11v-28.86z"/><path d="M204.89 287.17h-.11v28.86h.11v-28.86zm.11 0h-.11v28.86h.11v-28.86zm.12 0h-.11v28.86h.11v-28.86z"/><path d="M205.23 287.17h-.11v28.86h.11v-28.86zm.11 0h-.11v28.86h.11v-28.86zm.12 0h-.11v28.86h.11v-28.86z"/><path d="M205.57 287.17h-.11v28.86h.11v-28.86zm.11 0h-.11v28.86h.11v-28.86zm.12 0h-.11v28.86h.11v-28.86z"/><path d="M205.91 287.17h-.11v28.86h.11v-28.86zm.11 0h-.11v28.86h.11v-28.86zm.12 0h-.11v28.86h.11v-28.86zm.11 0h-.11v28.86h.11v-28.86zm.11 0h-.11v28.86h.11v-28.86zm.12 0h-.11v28.86h.11v-28.86zm.11 0h-.11v28.86h.11v-28.86z"/><path d="M206.7 287.17h-.11v28.86h.11v-28.86zm.12 0h-.11v28.86h.11v-28.86zm.11 0h-.11v28.86h.11v-28.86z"/><path d="M207.04 287.17h-.11v28.86h.11v-28.86zm.12 0h-.11v28.86h.11v-28.86zm.11 0h-.11v28.86h.11v-28.86z"/><path d="M207.38 287.17h-.11v28.86h.11v-28.86zm.12 0h-.11v28.86h.11v-28.86zm.11 0h-.11v28.86h.11v-28.86z"/><path d="M207.72 287.17h-.11v28.86h.11v-28.86z"/></g><path d="M124.19 323.62h-7.59v7.59h7.59v-7.59z" fill="#fff"/><mask id="g" style="mask-type:luminance" maskUnits="userSpaceOnUse" x="116" y="323" width="9" height="9"><path d="M124.19 323.62h-7.59v7.59h7.59v-7.59z" fill="#fff"/></mask><g mask="url(#g)" fill="#fff"><path d="M116.71 323.62h-.11v7.59h.11v-7.59zm.11 0h-.11v7.59h.11v-7.59zm.11 0h-.11v7.59h.11v-7.59zm.12 0h-.11v7.59h.11v-7.59zm.11 0h-.11v7.59h.11v-7.59zm.11 0h-.11v7.59h.11v-7.59zm.12 0h-.11v7.59h.11v-7.59zm.11 0h-.11v7.59h.11v-7.59zm.11 0h-.11v7.59h.11v-7.59zm.12 0h-.11v7.59h.11v-7.59zm.11 0h-.11v7.59h.11v-7.59zm.11 0h-.11v7.59h.11v-7.59zm.12 0h-.11v7.59h.11v-7.59zm.11 0h-.11v7.59h.11v-7.59zm.11 0h-.11v7.59h.11v-7.59zm.12 0h-.11v7.59h.11v-7.59zm.11 0h-.11v7.59h.11v-7.59zm.11 0h-.11v7.59h.11v-7.59zm.12 0h-.11v7.59h.11v-7.59zm.11 0h-.11v7.59h.11v-7.59zm.11 0h-.11v7.59h.11v-7.59zm.12 0h-.11v7.59h.11v-7.59zm.11 0h-.11v7.59h.11v-7.59zm.11 0h-.11v7.59h.11v-7.59zm.12 0h-.11v7.59h.11v-7.59zm.11 0h-.11v7.59h.11v-7.59zm.11 0h-.11v7.59h.11v-7.59zm.12 0h-.11v7.59h.11v-7.59zm.11 0h-.11v7.59h.11v-7.59zm.11 0h-.11v7.59h.11v-7.59zm.12 0H120v7.59h.11v-7.59zm.11 0h-.11v7.59h.11v-7.59zm.11 0h-.11v7.59h.11v-7.59zm.12 0h-.11v7.59h.11v-7.59zm.11 0h-.11v7.59h.11v-7.59zm.11 0h-.11v7.59h.11v-7.59zm.12 0h-.11v7.59h.11v-7.59zm.11 0h-.11v7.59h.11v-7.59zm.11 0h-.11v7.59h.11v-7.59zm.12 0h-.11v7.59h.11v-7.59zm.11 0h-.11v7.59h.11v-7.59zm.11 0h-.11v7.59h.11v-7.59zm.12 0h-.11v7.59h.11v-7.59zm.11 0h-.11v7.59h.11v-7.59zm.11 0h-.11v7.59h.11v-7.59zm.12 0h-.11v7.59h.11v-7.59zm.11 0h-.11v7.59h.11v-7.59zm.12 0h-.11v7.59h.11v-7.59zm.11 0h-.11v7.59h.11v-7.59zm.11 0h-.11v7.59h.11v-7.59zm.12 0h-.11v7.59h.11v-7.59zm.11 0h-.11v7.59h.11v-7.59zm.11 0h-.11v7.59h.11v-7.59zm.12 0h-.11v7.59h.11v-7.59zm.11 0h-.11v7.59h.11v-7.59zm.11 0h-.11v7.59h.11v-7.59zm.12 0h-.11v7.59h.11v-7.59zm.11 0h-.11v7.59h.11v-7.59zm.11 0h-.11v7.59h.11v-7.59zm.12 0h-.11v7.59h.11v-7.59zm.11 0h-.11v7.59h.11v-7.59zm.11 0h-.11v7.59h.11v-7.59zm.12 0h-.11v7.59h.11v-7.59zm.11 0h-.11v7.59h.11v-7.59zm.11 0h-.11v7.59h.11v-7.59zm.12 0h-.11v7.59h.11v-7.59zm.11 0h-.11v7.59h.11v-7.59z"/></g><path d="M124.19 287.17h-7.59v28.86h7.59v-28.86z" fill="#fff"/><mask id="h" style="mask-type:luminance" maskUnits="userSpaceOnUse" x="116" y="287" width="9" height="30"><path d="M124.19 287.17h-7.59v28.86h7.59v-28.86z" fill="#fff"/></mask><g mask="url(#h)" fill="#fff"><path d="M116.71 287.17h-.11v28.86h.11v-28.86zm.11 0h-.11v28.86h.11v-28.86zm.11 0h-.11v28.86h.11v-28.86zm.12 0h-.11v28.86h.11v-28.86zm.11 0h-.11v28.86h.11v-28.86zm.11 0h-.11v28.86h.11v-28.86zm.12 0h-.11v28.86h.11v-28.86zm.11 0h-.11v28.86h.11v-28.86zm.11 0h-.11v28.86h.11v-28.86zm.12 0h-.11v28.86h.11v-28.86zm.11 0h-.11v28.86h.11v-28.86zm.11 0h-.11v28.86h.11v-28.86zm.12 0h-.11v28.86h.11v-28.86zm.11 0h-.11v28.86h.11v-28.86zm.11 0h-.11v28.86h.11v-28.86zm.12 0h-.11v28.86h.11v-28.86zm.11 0h-.11v28.86h.11v-28.86zm.11 0h-.11v28.86h.11v-28.86zm.12 0h-.11v28.86h.11v-28.86zm.11 0h-.11v28.86h.11v-28.86zm.11 0h-.11v28.86h.11v-28.86zm.12 0h-.11v28.86h.11v-28.86zm.11 0h-.11v28.86h.11v-28.86zm.11 0h-.11v28.86h.11v-28.86zm.12 0h-.11v28.86h.11v-28.86zm.11 0h-.11v28.86h.11v-28.86zm.11 0h-.11v28.86h.11v-28.86zm.12 0h-.11v28.86h.11v-28.86zm.11 0h-.11v28.86h.11v-28.86zm.11 0h-.11v28.86h.11v-28.86zm.12 0H120v28.86h.11v-28.86zm.11 0h-.11v28.86h.11v-28.86zm.11 0h-.11v28.86h.11v-28.86zm.12 0h-.11v28.86h.11v-28.86zm.11 0h-.11v28.86h.11v-28.86zm.11 0h-.11v28.86h.11v-28.86zm.12 0h-.11v28.86h.11v-28.86zm.11 0h-.11v28.86h.11v-28.86zm.11 0h-.11v28.86h.11v-28.86zm.12 0h-.11v28.86h.11v-28.86zm.11 0h-.11v28.86h.11v-28.86zm.11 0h-.11v28.86h.11v-28.86zm.12 0h-.11v28.86h.11v-28.86zm.11 0h-.11v28.86h.11v-28.86zm.11 0h-.11v28.86h.11v-28.86zm.12 0h-.11v28.86h.11v-28.86zm.11 0h-.11v28.86h.11v-28.86zm.12 0h-.11v28.86h.11v-28.86zm.11 0h-.11v28.86h.11v-28.86zm.11 0h-.11v28.86h.11v-28.86zm.12 0h-.11v28.86h.11v-28.86zm.11 0h-.11v28.86h.11v-28.86zm.11 0h-.11v28.86h.11v-28.86zm.12 0h-.11v28.86h.11v-28.86zm.11 0h-.11v28.86h.11v-28.86zm.11 0h-.11v28.86h.11v-28.86zm.12 0h-.11v28.86h.11v-28.86zm.11 0h-.11v28.86h.11v-28.86zm.11 0h-.11v28.86h.11v-28.86zm.12 0h-.11v28.86h.11v-28.86zm.11 0h-.11v28.86h.11v-28.86zm.11 0h-.11v28.86h.11v-28.86zm.12 0h-.11v28.86h.11v-28.86zm.11 0h-.11v28.86h.11v-28.86zm.11 0h-.11v28.86h.11v-28.86zm.12 0h-.11v28.86h.11v-28.86zm.11 0h-.11v28.86h.11v-28.86z"/></g><path d="M146.97 294.77h-7.59v44.05h7.59v-44.05z" fill="#fff"/><mask id="i" style="mask-type:luminance" maskUnits="userSpaceOnUse" x="139" y="294" width="8" height="45"><path d="M146.97 294.77h-7.59v44.05h7.59v-44.05z" fill="#fff"/></mask><g mask="url(#i)" fill="#fff"><path d="M139.49 294.77h-.11v44.05h.11v-44.05z"/><path d="M139.6 294.77h-.11v44.05h.11v-44.05zm.12 0h-.11v44.05h.11v-44.05zm.11 0h-.11v44.05h.11v-44.05z"/><path d="M139.94 294.77h-.11v44.05h.11v-44.05zm.12 0h-.11v44.05h.11v-44.05z"/><path d="M140.17 294.77h-.11v44.05h.11v-44.05zm.11 0h-.11v44.05h.11v-44.05zm.12 0h-.11v44.05h.11v-44.05z"/><path d="M140.51 294.77h-.11v44.05h.11v-44.05zm.11 0h-.11v44.05h.11v-44.05zm.12 0h-.11v44.05h.11v-44.05z"/><path d="M140.85 294.77h-.11v44.05h.11v-44.05zm.11 0h-.11v44.05h.11v-44.05zm.12 0h-.11v44.05h.11v-44.05z"/><path d="M141.19 294.77h-.11v44.05h.11v-44.05zm.11 0h-.11v44.05h.11v-44.05zm.12 0h-.11v44.05h.11v-44.05zm.11 0h-.11v44.05h.11v-44.05z"/><path d="M141.64 294.77h-.11v44.05h.11v-44.05zm.12 0h-.11v44.05h.11v-44.05zm.11 0h-.11v44.05h.11v-44.05z"/><path d="M141.98 294.77h-.11v44.05h.11v-44.05zm.12 0h-.11v44.05h.11v-44.05zm.11 0h-.11v44.05h.11v-44.05z"/><path d="M142.32 294.77h-.11v44.05h.11v-44.05zm.12 0h-.11v44.05h.11v-44.05zm.11 0h-.11v44.05h.11v-44.05z"/><path d="M142.66 294.77h-.11v44.05h.11v-44.05zm.12 0h-.11v44.05h.11v-44.05z"/><path d="M142.89 294.77h-.11v44.05h.11v-44.05zm.11 0h-.11v44.05h.11v-44.05zm.12 0h-.11v44.05h.11v-44.05z"/><path d="M143.23 294.77h-.11v44.05h.11v-44.05zm.11 0h-.11v44.05h.11v-44.05zm.12 0h-.11v44.05h.11v-44.05z"/><path d="M143.57 294.77h-.11v44.05h.11v-44.05zm.11 0h-.11v44.05h.11v-44.05zm.12 0h-.11v44.05h.11v-44.05z"/><path d="M143.91 294.77h-.11v44.05h.11v-44.05zm.11 0h-.11v44.05h.11v-44.05zm.12 0h-.11v44.05h.11v-44.05zm.11 0h-.11v44.05h.11v-44.05zm.11 0h-.11v44.05h.11v-44.05zm.12 0h-.11v44.05h.11v-44.05zm.11 0h-.11v44.05h.11v-44.05z"/><path d="M144.7 294.77h-.11v44.05h.11v-44.05zm.12 0h-.11v44.05h.11v-44.05zm.11 0h-.11v44.05h.11v-44.05z"/><path d="M145.04 294.77h-.11v44.05h.11v-44.05zm.12 0h-.11v44.05h.11v-44.05zm.11 0h-.11v44.05h.11v-44.05z"/><path d="M145.38 294.77h-.11v44.05h.11v-44.05zm.12 0h-.11v44.05h.11v-44.05zm.11 0h-.11v44.05h.11v-44.05z"/><path d="M145.72 294.77h-.11v44.05h.11v-44.05zm.12 0h-.11v44.05h.11v-44.05z"/><path d="M145.95 294.77h-.11v44.05h.11v-44.05zm.11 0h-.11v44.05h.11v-44.05zm.12 0h-.11v44.05h.11v-44.05z"/><path d="M146.29 294.77h-.11v44.05h.11v-44.05zm.11 0h-.11v44.05h.11v-44.05zm.12 0h-.11v44.05h.11v-44.05z"/><path d="M146.63 294.77h-.11v44.05h.11v-44.05zm.11 0h-.11v44.05h.11v-44.05zm.12 0h-.11v44.05h.11v-44.05z"/><path d="M146.97 294.77h-.11v44.05h.11v-44.05z"/></g><path d="M227.52 278.54l-4.72-18.87-7.37 1.84 2.86 11.42a167.353 167.353 0 01-26.54 2.79l-4.84-46a24.89 24.89 0 00-49.5 0l-4.84 46a166.31 166.31 0 01-26.57-2.79l2.85-11.42-7.37-1.84-4.68 18.87 3.69.92c11.5 2.88 24.86 3.64 31.28 3.84l-.28 2.71 2.89 1a98.703 98.703 0 0055.56 0l2.9-1-.29-2.71c6.42-.2 19.78-1 31.29-3.84l3.68-.92zm-65.36 4.83a94.187 94.187 0 01-22.47-2.78l5.31-50.08a17.286 17.286 0 0117.195-15.48 17.292 17.292 0 0117.195 15.48l5.27 50.08a93.111 93.111 0 01-22.5 2.78z" fill="#fff"/><mask id="j" style="mask-type:luminance" maskUnits="userSpaceOnUse" x="96" y="207" width="132" height="85"><path d="M227.52 278.54l-4.72-18.87-7.37 1.84 2.86 11.42a167.353 167.353 0 01-26.54 2.79l-4.84-46a24.89 24.89 0 00-49.5 0l-4.84 46a166.31 166.31 0 01-26.57-2.79l2.85-11.42-7.37-1.84-4.68 18.87 3.69.92c11.5 2.88 24.86 3.64 31.28 3.84l-.28 2.71 2.89 1a98.703 98.703 0 0055.56 0l2.9-1-.29-2.71c6.42-.2 19.78-1 31.29-3.84l3.68-.92zm-65.36 4.83a94.187 94.187 0 01-22.47-2.78l5.31-50.08a17.286 17.286 0 0117.195-15.48 17.292 17.292 0 0117.195 15.48l5.27 50.08a93.111 93.111 0 01-22.5 2.78z" fill="#fff"/></mask><g mask="url(#j)" fill="#fff"><path d="M139.72 215.03h-.03v68.35h.03v-68.35zm1.96 0h-1.95v68.35h1.95v-68.35zm1.95 0h-1.95v68.35h1.95v-68.35zm1.95 0h-1.95v68.35h1.95v-68.35zm1.95 0h-1.95v68.35h1.95v-68.35zm1.95 0h-1.95v68.35h1.95v-68.35zm1.95 0h-1.95v68.35h1.95v-68.35zm1.95 0h-1.95v68.35h1.95v-68.35zm1.95 0h-1.95v68.35h1.95v-68.35zm1.95 0h-1.95v68.35h1.95v-68.35zm1.95 0h-1.95v68.35h1.95v-68.35zm1.96 0h-1.95v68.35h1.95v-68.35zm1.95 0h-1.95v68.35h1.95v-68.35zm1.95 0h-1.95v68.35h1.95v-68.35zm1.95 0h-1.95v68.35h1.95v-68.35zm1.95 0h-1.95v68.35h1.95v-68.35zm1.95 0h-1.95v68.35h1.95v-68.35zm1.95 0h-1.95v68.35h1.95v-68.35zm1.95 0h-1.95v68.35h1.95v-68.35zm1.95 0h-1.95v68.35h1.95v-68.35zm1.95 0h-1.95v68.35h1.95v-68.35zm1.96 0h-1.95v68.35h1.95v-68.35zm1.95 0h-1.95v68.35h1.95v-68.35zm1.95 0h-1.95v68.35h1.95v-68.35zm.03 0h-.03v68.35h.03v-68.35zm-85.88-7.6H96.8v83.53h1.95v-83.53zm1.96 0h-1.95v83.53h1.95v-83.53zm1.95 0h-1.95v83.53h1.95v-83.53zm1.95 0h-1.95v83.53h1.95v-83.53zm1.95 0h-1.95v83.53h1.95v-83.53zm1.95 0h-1.95v83.53h1.95v-83.53zm1.95 0h-1.95v83.53h1.95v-83.53zm1.95 0h-1.95v83.53h1.95v-83.53zm1.95 0h-1.95v83.53h1.95v-83.53zm1.95 0h-1.95v83.53h1.95v-83.53zm1.95 0h-1.95v83.53h1.95v-83.53zm1.96 0h-1.95v83.53h1.95v-83.53zm1.95 0h-1.95v83.53h1.95v-83.53zm1.95 0h-1.95v83.53h1.95v-83.53z"/><path d="M126.07 207.43h-1.95v83.53h1.95v-83.53zm1.95 0h-1.95v83.53h1.95v-83.53zm1.95 0h-1.95v83.53h1.95v-83.53zm1.95 0h-1.95v83.53h1.95v-83.53zm1.95 0h-1.95v83.53h1.95v-83.53zm1.95 0h-1.95v83.53h1.95v-83.53zm1.95 0h-1.95v83.53h1.95v-83.53zm1.95 0h-1.95v83.53h1.95v-83.53zm1.96 0h-1.95v83.53h1.95v-83.53zm1.95 0h-1.95v83.53h1.95v-83.53zm1.95 0h-1.95v83.53h1.95v-83.53zm1.95 0h-1.95v83.53h1.95v-83.53zm1.95 0h-1.95v83.53h1.95v-83.53zm1.95 0h-1.95v83.53h1.95v-83.53zm1.95 0h-1.95v83.53h1.95v-83.53zm1.95 0h-1.95v83.53h1.95v-83.53zm1.95 0h-1.95v83.53h1.95v-83.53zm1.95 0h-1.95v83.53h1.95v-83.53zm1.96 0h-1.95v83.53h1.95v-83.53zm1.95 0h-1.95v83.53h1.95v-83.53zm1.95 0h-1.95v83.53h1.95v-83.53zm1.95 0h-1.95v83.53h1.95v-83.53zm1.95 0h-1.95v83.53h1.95v-83.53zm1.95 0h-1.95v83.53h1.95v-83.53zm1.95 0h-1.95v83.53h1.95v-83.53zm1.95 0h-1.95v83.53h1.95v-83.53zm1.95 0h-1.95v83.53h1.95v-83.53zm1.95 0h-1.95v83.53h1.95v-83.53zm1.96 0h-1.95v83.53h1.95v-83.53zm1.95 0h-1.95v83.53h1.95v-83.53zm1.95 0h-1.95v83.53h1.95v-83.53zm1.95 0h-1.95v83.53h1.95v-83.53zm1.95 0h-1.95v83.53h1.95v-83.53zm1.95 0h-1.95v83.53h1.95v-83.53zm1.95 0h-1.95v83.53h1.95v-83.53zm1.95 0h-1.95v83.53h1.95v-83.53zm1.95 0h-1.95v83.53h1.95v-83.53zm1.95 0h-1.95v83.53h1.95v-83.53zm1.96 0h-1.95v83.53h1.95v-83.53zm1.95 0h-1.95v83.53h1.95v-83.53zm1.95 0h-1.95v83.53h1.95v-83.53zm1.95 0h-1.95v83.53h1.95v-83.53zm1.95 0h-1.95v83.53h1.95v-83.53zm1.95 0h-1.95v83.53h1.95v-83.53zm1.95 0h-1.95v83.53h1.95v-83.53zm1.95 0h-1.95v83.53h1.95v-83.53zm1.95 0h-1.95v83.53h1.95v-83.53zm1.95 0h-1.95v83.53h1.95v-83.53zm1.96 0h-1.95v83.53h1.95v-83.53zm1.95 0h-1.95v83.53h1.95v-83.53zm1.95 0h-1.95v83.53h1.95v-83.53zm1.95 0h-1.95v83.53h1.95v-83.53zm1.95 0h-1.95v83.53h1.95v-83.53z"/></g><path d="M222.91 196.91v-84.4c0-18-19.89-30-26.62-33.51a97.124 97.124 0 00-19.24-55.5 18.594 18.594 0 00-14.885-7.447A18.6 18.6 0 00147.28 23.5c-10.17 13.57-18.51 37.88-19.22 55.5-6.72 3.53-26.65 15.52-26.65 33.52v84.4l-38 31.52v31.62l3.22.5c.5.07 50.17 7.64 95.5 7.64s95-7.57 95.5-7.64l3.22-.5v-31.63l-37.94-31.52zm-7.59-84.4v78.1l-6.16-5.12a33.99 33.99 0 01-12.82-26.68v-71c7.17 4.35 18.98 13.29 18.98 24.7zm-106.32 0c0-11.41 11.81-20.35 19-24.73v71a34.086 34.086 0 01-12.88 26.73l-6.12 5.1v-78.1zm144.29 141c-11.29 1.6-50.29 6.73-87.29 7.06v-49.34h-7.59v49.34c-37.05-.33-76.06-5.46-87.34-7.06V232l48.88-40.58a41.566 41.566 0 0015.67-32.61V81.37c0-16.05 8.14-40.47 17.77-53.31a11 11 0 0117.62 0 89.4 89.4 0 0117.77 53.31v77.44a41.536 41.536 0 0015.63 32.57L253.29 232v21.51z" fill="#fff"/><mask id="k" style="mask-type:luminance" maskUnits="userSpaceOnUse" x="63" y="16" width="198" height="253"><path d="M222.91 196.91v-84.4c0-18-19.89-30-26.62-33.51a97.124 97.124 0 00-19.24-55.5 18.594 18.594 0 00-14.885-7.447A18.6 18.6 0 00147.28 23.5c-10.17 13.57-18.51 37.88-19.22 55.5-6.72 3.53-26.65 15.52-26.65 33.52v84.4l-38 31.52v31.62l3.22.5c.5.07 50.17 7.64 95.5 7.64s95-7.57 95.5-7.64l3.22-.5v-31.63l-37.94-31.52zm-7.59-84.4v78.1l-6.16-5.12a33.99 33.99 0 01-12.82-26.68v-71c7.17 4.35 18.98 13.29 18.98 24.7zm-106.32 0c0-11.41 11.81-20.35 19-24.73v71a34.086 34.086 0 01-12.88 26.73l-6.12 5.1v-78.1zm144.29 141c-11.29 1.6-50.29 6.73-87.29 7.06v-49.34h-7.59v49.34c-37.05-.33-76.06-5.46-87.34-7.06V232l48.88-40.58a41.566 41.566 0 0015.67-32.61V81.37c0-16.05 8.14-40.47 17.77-53.31a11 11 0 0117.62 0 89.4 89.4 0 0117.77 53.31v77.44a41.536 41.536 0 0015.63 32.57L253.29 232v21.51z" fill="#fff"/></mask><g mask="url(#k)" fill="#fff"><path d="M72.28 23.66h-1.25v236.92h1.25V23.66zm2.95 0h-2.95v236.92h2.95V23.66zm2.95 0h-2.95v236.92h2.95V23.66z"/><path d="M81.12 23.66h-2.95v236.92h2.95V23.66z"/><path d="M84.07 23.66h-2.95v236.92h2.95V23.66zm2.95 0h-2.95v236.92h2.95V23.66zm2.95 0h-2.95v236.92h2.95V23.66z"/><path d="M92.91 23.66h-2.95v236.92h2.95V23.66zm2.95 0h-2.95v236.92h2.95V23.66zm2.95 0h-2.95v236.92h2.95V23.66z"/><path d="M101.75 23.66H98.8v236.92h2.95V23.66zm2.95 0h-2.95v236.92h2.95V23.66zm2.95 0h-2.95v236.92h2.95V23.66z"/><path d="M110.59 23.66h-2.95v236.92h2.95V23.66zm2.95 0h-2.95v236.92h2.95V23.66z"/><path d="M116.49 23.66h-2.95v236.92h2.95V23.66z"/><path d="M119.43 23.66h-2.95v236.92h2.95V23.66z"/><path d="M122.38 23.66h-2.95v236.92h2.95V23.66zm2.95 0h-2.95v236.92h2.95V23.66zm2.95 0h-2.95v236.92h2.95V23.66z"/><path d="M131.22 23.66h-2.95v236.92h2.95V23.66zm2.95 0h-2.95v236.92h2.95V23.66zm2.95 0h-2.95v236.92h2.95V23.66z"/><path d="M140.06 23.66h-2.95v236.92h2.95V23.66zm2.95 0h-2.95v236.92h2.95V23.66zm2.95 0h-2.95v236.92h2.95V23.66z"/><path d="M148.9 23.66h-2.95v236.92h2.95V23.66zm2.95 0h-2.95v236.92h2.95V23.66zm2.95 0h-2.95v236.92h2.95V23.66z"/><path d="M157.74 23.66h-2.95v236.92h2.95V23.66zm2.95 0h-2.95v236.92h2.95V23.66zm2.95 0h-2.95v236.92h2.95V23.66zm2.95 0h-2.95v236.92h2.95V23.66z"/><path d="M169.53 23.66h-2.95v236.92h2.95V23.66zm2.95 0h-2.95v236.92h2.95V23.66zm2.95 0h-2.95v236.92h2.95V23.66z"/><path d="M178.37 23.66h-2.95v236.92h2.95V23.66zm2.95 0h-2.95v236.92h2.95V23.66zm2.95 0h-2.95v236.92h2.95V23.66z"/><path d="M187.21 23.66h-2.95v236.92h2.95V23.66zm2.95 0h-2.95v236.92h2.95V23.66zm2.95 0h-2.95v236.92h2.95V23.66zm2.95 0h-2.95v236.92h2.95V23.66z"/><path d="M199 23.66h-2.95v236.92H199V23.66zm2.95 0H199v236.92h2.95V23.66zm2.95 0h-2.95v236.92h2.95V23.66z"/><path d="M207.84 23.66h-2.95v236.92h2.95V23.66zm2.95 0h-2.95v236.92h2.95V23.66zm2.95 0h-2.95v236.92h2.95V23.66z"/><path d="M216.68 23.66h-2.95v236.92h2.95V23.66zm2.95 0h-2.95v236.92h2.95V23.66zm2.95 0h-2.95v236.92h2.95V23.66z"/><path d="M225.52 23.66h-2.95v236.92h2.95V23.66zm2.95 0h-2.95v236.92h2.95V23.66zm2.95 0h-2.95v236.92h2.95V23.66zm2.95 0h-2.95v236.92h2.95V23.66z"/><path d="M237.31 23.66h-2.95v236.92h2.95V23.66zm2.95 0h-2.95v236.92h2.95V23.66zm2.95 0h-2.95v236.92h2.95V23.66z"/><path d="M246.15 23.66h-2.95v236.92h2.95V23.66zm2.95 0h-2.95v236.92h2.95V23.66zm2.95 0h-2.95v236.92h2.95V23.66z"/><path d="M253.29 23.66h-1.25v236.92h1.25V23.66zm-142.7 64.12H109v102.83h1.59V87.78zm2.95 0h-2.95v102.83h2.95V87.78z"/><path d="M116.49 87.78h-2.95v102.83h2.95V87.78z"/><path d="M119.43 87.78h-2.95v102.83h2.95V87.78z"/><path d="M122.38 87.78h-2.95v102.83h2.95V87.78zm2.95 0h-2.95v102.83h2.95V87.78zm2.66 0h-2.66v102.83h2.66V87.78zm71.01 0h-2.66v102.83H199V87.78zm2.95 0H199v102.83h2.95V87.78zm2.95 0h-2.95v102.83h2.95V87.78z"/><path d="M207.84 87.78h-2.95v102.83h2.95V87.78zm2.95 0h-2.95v102.83h2.95V87.78zm2.95 0h-2.95v102.83h2.95V87.78z"/><path d="M215.32 87.78h-1.59v102.83h1.59V87.78zM66.39 16.06h-2.95v252.12h2.95V16.06zm2.95 0h-2.95v252.12h2.95V16.06z"/><path d="M72.28 16.06h-2.95v252.12h2.95V16.06zm2.95 0h-2.95v252.12h2.95V16.06zm2.95 0h-2.95v252.12h2.95V16.06z"/><path d="M81.12 16.06h-2.95v252.12h2.95V16.06z"/><path d="M84.07 16.06h-2.95v252.12h2.95V16.06zm2.95 0h-2.95v252.12h2.95V16.06zm2.95 0h-2.95v252.12h2.95V16.06z"/><path d="M92.91 16.06h-2.95v252.12h2.95V16.06zm2.95 0h-2.95v252.12h2.95V16.06zm2.95 0h-2.95v252.12h2.95V16.06z"/><path d="M101.75 16.06H98.8v252.12h2.95V16.06zm2.95 0h-2.95v252.12h2.95V16.06zm2.95 0h-2.95v252.12h2.95V16.06z"/><path d="M110.59 16.06h-2.95v252.12h2.95V16.06zm2.95 0h-2.95v252.12h2.95V16.06z"/><path d="M116.49 16.06h-2.95v252.12h2.95V16.06z"/><path d="M119.43 16.06h-2.95v252.12h2.95V16.06z"/><path d="M122.38 16.06h-2.95v252.12h2.95V16.06zm2.95 0h-2.95v252.12h2.95V16.06zm2.95 0h-2.95v252.12h2.95V16.06z"/><path d="M131.22 16.06h-2.95v252.12h2.95V16.06zm2.95 0h-2.95v252.12h2.95V16.06zm2.95 0h-2.95v252.12h2.95V16.06z"/><path d="M140.06 16.06h-2.95v252.12h2.95V16.06zm2.95 0h-2.95v252.12h2.95V16.06zm2.95 0h-2.95v252.12h2.95V16.06z"/><path d="M148.9 16.06h-2.95v252.12h2.95V16.06zm2.95 0h-2.95v252.12h2.95V16.06zm2.95 0h-2.95v252.12h2.95V16.06z"/><path d="M157.74 16.06h-2.95v252.12h2.95V16.06zm2.95 0h-2.95v252.12h2.95V16.06zm2.95 0h-2.95v252.12h2.95V16.06zm2.95 0h-2.95v252.12h2.95V16.06z"/><path d="M169.53 16.06h-2.95v252.12h2.95V16.06zm2.95 0h-2.95v252.12h2.95V16.06zm2.95 0h-2.95v252.12h2.95V16.06z"/><path d="M178.37 16.06h-2.95v252.12h2.95V16.06zm2.95 0h-2.95v252.12h2.95V16.06zm2.95 0h-2.95v252.12h2.95V16.06z"/><path d="M187.21 16.06h-2.95v252.12h2.95V16.06zm2.95 0h-2.95v252.12h2.95V16.06zm2.95 0h-2.95v252.12h2.95V16.06zm2.95 0h-2.95v252.12h2.95V16.06z"/><path d="M199 16.06h-2.95v252.12H199V16.06zm2.95 0H199v252.12h2.95V16.06zm2.95 0h-2.95v252.12h2.95V16.06z"/><path d="M207.84 16.06h-2.95v252.12h2.95V16.06zm2.95 0h-2.95v252.12h2.95V16.06zm2.95 0h-2.95v252.12h2.95V16.06z"/><path d="M216.68 16.06h-2.95v252.12h2.95V16.06zm2.95 0h-2.95v252.12h2.95V16.06zm2.95 0h-2.95v252.12h2.95V16.06z"/><path d="M225.52 16.06h-2.95v252.12h2.95V16.06zm2.95 0h-2.95v252.12h2.95V16.06zm2.95 0h-2.95v252.12h2.95V16.06zm2.95 0h-2.95v252.12h2.95V16.06z"/><path d="M237.31 16.06h-2.95v252.12h2.95V16.06zm2.95 0h-2.95v252.12h2.95V16.06zm2.95 0h-2.95v252.12h2.95V16.06z"/><path d="M246.15 16.06h-2.95v252.12h2.95V16.06zm2.95 0h-2.95v252.12h2.95V16.06zm2.95 0h-2.95v252.12h2.95V16.06z"/><path d="M254.99 16.06h-2.95v252.12h2.95V16.06zm2.95 0h-2.95v252.12h2.95V16.06zm2.95 0h-2.95v252.12h2.95V16.06z"/></g><path d="M169 53.28c-.78-1-3.12-4.17-6.84-4.17-3.71 0-6.06 3.14-6.83 4.16-4.69 6.25-12.15 23.73-12.15 32.66v45.56h7.59V89.73h22.78v41.76h7.6V85.93c0-9.85-6.29-24.83-12.15-32.65zm-17.76 28.85c1.55-7.57 6.64-19.61 10.16-24.3.23-.313.484-.607.76-.88.276.273.53.567.76.88a64.377 64.377 0 0110.29 24.3h-21.97z" fill="#fff"/><mask id="l" style="mask-type:luminance" maskUnits="userSpaceOnUse" x="143" y="49" width="39" height="83"><path d="M169 53.28c-.78-1-3.12-4.17-6.84-4.17-3.71 0-6.06 3.14-6.83 4.16-4.69 6.25-12.15 23.73-12.15 32.66v45.56h7.59V89.73h22.78v41.76h7.6V85.93c0-9.85-6.29-24.83-12.15-32.65zm-17.76 28.85c1.55-7.57 6.64-19.61 10.16-24.3.23-.313.484-.607.76-.88.276.273.53.567.76.88a64.377 64.377 0 0110.29 24.3h-21.97z" fill="#fff"/></mask><g mask="url(#l)" fill="#fff"><path d="M151.68 56.95h-.44v25.19h.44V56.95zm.57 0h-.57v25.19h.57V56.95z"/><path d="M152.81 56.95h-.57v25.19h.57V56.95zm.57 0h-.57v25.19h.57V56.95zm.57 0h-.57v25.19h.57V56.95z"/><path d="M154.51 56.95h-.57v25.19h.57V56.95zm.57 0h-.57v25.19h.57V56.95zm.57 0h-.57v25.19h.57V56.95z"/><path d="M156.21 56.95h-.57v25.19h.57V56.95zm.57 0h-.57v25.19h.57V56.95zm.57 0h-.57v25.19h.57V56.95zm.57 0h-.57v25.19h.57V56.95z"/><path d="M158.48 56.95h-.57v25.19h.57V56.95zm.57 0h-.57v25.19h.57V56.95zm.57 0h-.57v25.19h.57V56.95z"/><path d="M160.18 56.95h-.57v25.19h.57V56.95zm.57 0h-.57v25.19h.57V56.95zm.57 0h-.57v25.19h.57V56.95z"/><path d="M161.88 56.95h-.57v25.19h.57V56.95zm.57 0h-.57v25.19h.57V56.95zm.57 0h-.57v25.19h.57V56.95z"/><path d="M163.58 56.95h-.57v25.19h.57V56.95zm.57 0h-.57v25.19h.57V56.95zm.57 0h-.57v25.19h.57V56.95z"/><path d="M165.28 56.95h-.57v25.19h.57V56.95zm.57 0h-.57v25.19h.57V56.95zm.57 0h-.57v25.19h.57V56.95z"/><path d="M166.98 56.95h-.57v25.19h.57V56.95zm.57 0h-.57v25.19h.57V56.95zm.57 0h-.57v25.19h.57V56.95z"/><path d="M168.68 56.95h-.57v25.19h.57V56.95zm.57 0h-.57v25.19h.57V56.95zm.57 0h-.57v25.19h.57V56.95z"/><path d="M170.38 56.95h-.57v25.19h.57V56.95zm.57 0h-.57v25.19h.57V56.95zm.57 0h-.57v25.19h.57V56.95z"/><path d="M172.08 56.95h-.57v25.19h.57V56.95zm.57 0h-.57v25.19h.57V56.95zm.57 0h-.57v25.19h.57V56.95zm-29.47-7.84h-.57v82.38h.57V49.11z"/><path d="M144.31 49.11h-.57v82.38h.57V49.11zm.57 0h-.57v82.38h.57V49.11zm.57 0h-.57v82.38h.57V49.11z"/><path d="M146.01 49.11h-.57v82.38h.57V49.11zm.57 0h-.57v82.38h.57V49.11zm.57 0h-.57v82.38h.57V49.11z"/><path d="M147.71 49.11h-.57v82.38h.57V49.11zm.57 0h-.57v82.38h.57V49.11zm.57 0h-.57v82.38h.57V49.11z"/><path d="M149.41 49.11h-.57v82.38h.57V49.11zm.57 0h-.57v82.38h.57V49.11zm.57 0h-.57v82.38h.57V49.11z"/><path d="M151.11 49.11h-.57v82.38h.57V49.11zm.57 0h-.57v82.38h.57V49.11zm.57 0h-.57v82.38h.57V49.11z"/><path d="M152.81 49.11h-.57v82.38h.57V49.11zm.57 0h-.57v82.38h.57V49.11zm.57 0h-.57v82.38h.57V49.11z"/><path d="M154.51 49.11h-.57v82.38h.57V49.11zm.57 0h-.57v82.38h.57V49.11zm.57 0h-.57v82.38h.57V49.11z"/><path d="M156.21 49.11h-.57v82.38h.57V49.11zm.57 0h-.57v82.38h.57V49.11zm.57 0h-.57v82.38h.57V49.11zm.57 0h-.57v82.38h.57V49.11z"/><path d="M158.48 49.11h-.57v82.38h.57V49.11zm.57 0h-.57v82.38h.57V49.11zm.57 0h-.57v82.38h.57V49.11z"/><path d="M160.18 49.11h-.57v82.38h.57V49.11zm.57 0h-.57v82.38h.57V49.11zm.57 0h-.57v82.38h.57V49.11z"/><path d="M161.88 49.11h-.57v82.38h.57V49.11zm.57 0h-.57v82.38h.57V49.11zm.57 0h-.57v82.38h.57V49.11z"/><path d="M163.58 49.11h-.57v82.38h.57V49.11zm.57 0h-.57v82.38h.57V49.11zm.57 0h-.57v82.38h.57V49.11z"/><path d="M165.28 49.11h-.57v82.38h.57V49.11zm.57 0h-.57v82.38h.57V49.11zm.57 0h-.57v82.38h.57V49.11z"/><path d="M166.98 49.11h-.57v82.38h.57V49.11zm.57 0h-.57v82.38h.57V49.11zm.57 0h-.57v82.38h.57V49.11z"/><path d="M168.68 49.11h-.57v82.38h.57V49.11zm.57 0h-.57v82.38h.57V49.11zm.57 0h-.57v82.38h.57V49.11z"/><path d="M170.38 49.11h-.57v82.38h.57V49.11zm.57 0h-.57v82.38h.57V49.11zm.57 0h-.57v82.38h.57V49.11z"/><path d="M172.08 49.11h-.57v82.38h.57V49.11zm.57 0h-.57v82.38h.57V49.11zm.57 0h-.57v82.38h.57V49.11z"/><path d="M173.78 49.11h-.57v82.38h.57V49.11zm.57 0h-.57v82.38h.57V49.11zm.57 0h-.57v82.38h.57V49.11z"/><path d="M175.48 49.11h-.57v82.38h.57V49.11zm.57 0h-.57v82.38h.57V49.11zm.57 0h-.57v82.38h.57V49.11z"/><path d="M177.18 49.11h-.57v82.38h.57V49.11zm.57 0h-.57v82.38h.57V49.11zm.57 0h-.57v82.38h.57V49.11z"/><path d="M178.88 49.11h-.57v82.38h.57V49.11zm.57 0h-.57v82.38h.57V49.11zm.57 0h-.57v82.38h.57V49.11z"/><path d="M180.58 49.11h-.57v82.38h.57V49.11zm.57 0h-.57v82.38h.57V49.11z"/></g></svg>